<svg width="407" height="129" viewBox="0 0 407 129" fill="none" xmlns="http://www.w3.org/2000/svg">
<mask id="path-1-inside-1_199_110" fill="white">
<path fill-rule="evenodd" clip-rule="evenodd" d="M406.866 49.2936H407V124C407 126.761 404.761 129 402 129H4.99999C2.23857 129 0 126.761 0 124V54.2936C0 51.5321 2.23858 49.2936 5 49.2936H227.285L314.025 0.759128L314.218 0.867256C315.02 0.319994 315.989 0 317.033 0H402C404.761 0 407 2.23858 407 5V48.1376C407 48.5355 406.954 48.9225 406.866 49.2936Z"/>
</mask>
<path d="M406.866 49.2936L405.893 49.0632L405.601 50.2936H406.866V49.2936ZM407 49.2936H408V48.2936H407V49.2936ZM227.285 49.2936V50.2936H227.546L227.773 50.1662L227.285 49.2936ZM314.025 0.759128L314.513 -0.113542L314.025 -0.386776L313.537 -0.113549L314.025 0.759128ZM314.218 0.867256L313.73 1.73993L314.27 2.04236L314.782 1.69322L314.218 0.867256ZM406.866 50.2936H407V48.2936H406.866V50.2936ZM406 49.2936V124H408V49.2936H406ZM406 124C406 126.209 404.209 128 402 128V130C405.314 130 408 127.314 408 124H406ZM402 128H4.99999V130H402V128ZM4.99999 128C2.79085 128 1 126.209 1 124H-1C-1 127.314 1.68628 130 4.99999 130V128ZM1 124V54.2936H-1V124H1ZM1 54.2936C1 52.0844 2.79086 50.2936 5 50.2936V48.2936C1.68629 48.2936 -1 50.9799 -1 54.2936H1ZM5 50.2936H227.285V48.2936H5V50.2936ZM227.773 50.1662L314.513 1.63181L313.537 -0.113549L226.797 48.4209L227.773 50.1662ZM313.537 1.6318L313.73 1.73993L314.707 -0.00541391L314.513 -0.113542L313.537 1.6318ZM314.782 1.69322C315.423 1.25574 316.197 1 317.033 1V-1C315.782 -1 314.617 -0.615749 313.654 0.0412906L314.782 1.69322ZM317.033 1H402V-1H317.033V1ZM402 1C404.209 1 406 2.79086 406 5H408C408 1.68629 405.314 -1 402 -1V1ZM406 5V48.1376H408V5H406ZM406 48.1376C406 48.4574 405.963 48.7672 405.893 49.0632L407.839 49.5239C407.944 49.0779 408 48.6136 408 48.1376H406Z" fill="white" mask="url(#path-1-inside-1_199_110)"/>
<path fill-rule="evenodd" clip-rule="evenodd" d="M362.695 88.6915C362.478 89.9548 361.54 90.8029 361.54 90.8029C360.583 91.6511 359.32 91.6511 359.32 91.6511H337.624L340.656 69.9415C340.819 68.6963 341.793 67.8482 341.793 67.8482C342.768 67 344.032 67 344.032 67H365.727L362.695 88.6915ZM382.622 67L378.128 82.5919H384.535L386.521 68.6061L385.095 67H394.968L392.766 82.5919H396.051L395.492 86.7064H392.206L391.503 91.6511H383.272L383.976 86.7064H369.193L369.771 82.5919L374.139 68.0467L373.182 67H382.622ZM251.075 91.6511L262.681 67.1263H254.36L246.039 84.1439L242.754 67.1263H234L234.83 68.3354L239.415 91.6511H251.075ZM266.454 88.7457C266.454 88.7457 266.273 89.3412 266.399 89.8826C266.399 89.8826 266.526 90.424 266.905 90.821C266.905 90.821 267.266 91.218 267.789 91.4345C267.789 91.4345 268.313 91.6511 268.908 91.6511H292.229L295.117 70.0318C295.117 70.0318 295.297 69.3821 295.171 68.8588C295.171 68.8588 295.044 68.3354 294.665 67.9564C294.665 67.9564 294.304 67.5594 293.781 67.3429C293.781 67.3429 293.257 67.1263 292.662 67.1263H269.341L266.454 88.7457ZM323.635 87.4824L323.238 91.6511H301.615C300.369 91.6511 299.737 90.821 299.737 90.821C299.106 89.9908 299.106 88.7457 299.106 88.7457L301.615 68.7685L300.369 67.1263H310.333L307.427 87.4824H323.635ZM348.761 71.0784L346.414 87.5366H354.609L356.937 71.0784H348.761ZM286.814 71.295L284.341 87.4824H274.756L276.85 71.295H286.814ZM326.668 91.597H333.238L333.942 86.6703H327.354L326.668 91.597Z" fill="white"/>
<mask id="mask0_199_110" style="mask-type:luminance" maskUnits="userSpaceOnUse" x="343" y="23" width="24" height="24">
<path d="M366.995 23H343.188V46.8026H366.995V23Z" fill="white"/>
</mask>
<g mask="url(#mask0_199_110)">
<path fill-rule="evenodd" clip-rule="evenodd" d="M345.172 34.9092C345.172 40.36 349.648 44.8111 355.1 44.8111C360.552 44.8111 365.004 40.36 365.004 34.9092C365.004 29.4346 360.552 24.9836 355.1 24.9836C349.648 24.9836 345.172 29.4584 345.172 34.9092ZM357.671 27.3638C358.266 28.5539 358.766 29.6489 359.052 30.9342H361.932C361.052 29.2442 359.456 28.0541 357.671 27.3638ZM353.207 30.9421H356.969C356.588 29.4426 355.873 28.1572 355.088 26.9671C354.302 28.1572 353.612 29.5378 353.207 30.9421ZM350.822 36.8928C350.822 36.2025 350.727 35.5836 350.727 34.8934C350.727 34.2031 350.727 33.608 350.822 32.9177H347.465C347.251 33.5128 347.156 34.2031 347.156 34.8934C347.156 35.5836 347.251 36.2977 347.465 36.8928H350.822ZM352.509 42.4388C351.913 41.2487 351.414 40.1537 351.128 38.8684H348.247C349.152 40.5584 350.723 41.7485 352.509 42.4388ZM352.509 27.3638C350.723 28.0541 349.247 29.2442 348.247 30.9342H351.128C351.414 29.6489 351.913 28.5539 352.509 27.3638ZM356.969 38.8684H353.207C353.612 40.3442 354.302 41.6533 355.088 42.8434C355.897 41.6533 356.588 40.249 356.969 38.8684ZM357.683 34.8934C357.683 34.2031 357.564 33.608 357.469 32.9177H352.802C352.707 33.608 352.612 34.2031 352.612 34.8934C352.612 35.5836 352.707 36.1787 352.802 36.8928H357.373C357.469 36.2025 357.683 35.5836 357.683 34.8934ZM361.932 38.8684H359.052C358.766 40.1537 358.266 41.3439 357.671 42.4388C359.456 41.7485 361.052 40.5584 361.932 38.8684ZM362.837 36.8928C363.028 36.2977 363.123 35.5836 363.123 34.8934C363.123 34.2031 363.028 33.5128 362.837 32.9177H359.456C359.456 33.608 359.552 34.2031 359.552 34.8934C359.552 35.5836 359.552 36.1787 359.456 36.8928H362.837Z" fill="white"/>
</g>
<path fill-rule="evenodd" clip-rule="evenodd" d="M234.471 112H234V103H234.471V112ZM234.942 103H235.413V112H234.942V103ZM235.884 112H237.296V103H235.884V112ZM238.709 112H239.18V103H238.709V112ZM241.063 112H239.651V103H241.063V112ZM243.496 112V103H244.909V112H243.496ZM245.85 112V103H245.38V112H245.85ZM247.734 103V112H246.321V103H247.734ZM249.147 112H249.617V103H249.147V112ZM250.088 103V112H250.559V103H250.088ZM252.992 103H254.405V112H252.992V103ZM254.876 103V112H255.346V103H254.876ZM255.817 112H256.288V103H255.817V112ZM257.701 103H258.172V112H257.701V103ZM258.643 112H260.055V103H258.643V112ZM262.488 103V112H262.959V103H262.488ZM263.901 112H263.43V103H263.901V112ZM265.784 103V112H264.372V103H265.784ZM267.197 103V112H267.668V103H267.197ZM269.551 112H268.139V103H269.551V112ZM273.397 103V112H271.984V103H273.397ZM274.339 103V112H273.868V103H274.339ZM274.809 112V103H275.28V112H274.809ZM277.164 112V103H275.751V112H277.164ZM279.047 103H278.577V112H279.047V103ZM282.893 103H281.48V112H282.893V103ZM283.835 112V103H283.364V112H283.835ZM284.776 112H284.306V103H284.776V112ZM286.189 103H286.66V112H286.189V103ZM287.131 112H288.543V103H287.131V112ZM290.976 103V112H291.447V103H290.976ZM291.918 112V103H293.331V112H291.918ZM294.272 112H293.802V103H294.272V112ZM296.156 103H295.685V112H296.156V103ZM296.627 112V103H298.039V112H296.627ZM300.472 112H300.943V103H300.472V112ZM302.827 103H301.414V112H302.827V103ZM303.769 112H303.298V103H303.769V112ZM305.181 112V103H305.652V112H305.181ZM306.123 112H307.536V103H306.123V112ZM309.968 103V112H310.439V103H309.968ZM310.91 112V103H312.323V112H310.91ZM313.265 112V103H312.794V112H313.265ZM316.09 103V112H314.677V103H316.09ZM317.032 112H316.561V103H317.032V112ZM319.464 103V112H319.935V103H319.464ZM320.877 112V103H320.406V112H320.877ZM322.761 112H321.348V103H322.761V112ZM324.644 103V112H323.231V103H324.644ZM326.057 103V112H326.528V103H326.057ZM328.961 103H330.373V112H328.961V103ZM331.786 112V103H332.257V112H331.786ZM333.198 103H332.728V112H333.198V103ZM335.082 103V112H333.669V103H335.082ZM335.553 103V112H336.024V103H335.553ZM338.457 103H339.869V112H338.457V103ZM340.811 103V112H340.34V103H340.811ZM341.282 112H342.694V103H341.282V112ZM343.165 103V112H343.636V103H343.165ZM345.52 112H345.049V103H345.52V112ZM347.953 112H348.423V103H347.953V112ZM348.894 103V112H349.365V103H348.894ZM351.249 103V112H349.836V103H351.249ZM352.191 103V112H351.72V103H352.191ZM353.603 112H355.016V103H353.603V112ZM357.92 103H357.449V112H357.92V103ZM359.803 103H358.39V112H359.803V103ZM360.745 112H360.274V103H360.745V112ZM361.216 103V112H361.687V103H361.216ZM363.099 112V103H364.512V112H363.099ZM366.945 112H367.416V103H366.945V112ZM367.886 103V112H369.299V103H367.886ZM369.77 103H370.241V112H369.77V103ZM373.066 103V112H371.654V103H373.066ZM373.537 103H374.008V112H373.537V103ZM376.441 112H376.912V103H376.441V112ZM377.383 112H377.853V103H377.383V112ZM378.324 103H379.737V112H378.324V103ZM380.208 103H380.679V112H380.208V103ZM382.091 112H383.504V103H382.091V112ZM385.937 103H387.349V112H385.937V103ZM388.291 112V103H387.82V112H388.291ZM390.175 103V112H388.762V103H390.175ZM391.587 103V112H392.058V103H391.587ZM392.529 103V112H393V103H392.529Z" fill="white"/>
<path fill-rule="evenodd" clip-rule="evenodd" d="M38.2547 111.309C37.3859 111.964 35.8992 111.964 35.8992 111.964C34.509 111.964 33.6981 111.327 33.6981 111.327C32.9064 110.673 32.7906 109.418 32.7906 109.418H33.756C33.9491 111.164 35.9764 111.164 35.9764 111.164C37.019 111.164 37.579 110.745 37.579 110.745C38.1196 110.309 38.1196 109.509 38.1196 109.509C38.1196 108.782 37.6948 108.418 37.6948 108.418C37.2507 108.055 36.3819 107.909 36.3819 107.909L35.3199 107.745C34.1808 107.564 33.5822 107.018 33.5822 107.018C32.9837 106.455 32.9837 105.455 32.9837 105.455C32.9837 104.291 33.7946 103.655 33.7946 103.655C34.6248 103 35.9764 103 35.9764 103C37.2121 103 38.0037 103.6 38.0037 103.6C38.7954 104.218 38.9498 105.436 38.9498 105.436H37.9844C37.8107 103.8 35.9571 103.8 35.9571 103.8C35.011 103.8 34.4704 104.236 34.4704 104.236C33.9298 104.655 33.9298 105.4 33.9298 105.4C33.9298 106.036 34.3545 106.4 34.3545 106.4C34.76 106.764 35.5902 106.909 35.5902 106.909L36.6715 107.091C37.8493 107.273 38.4671 107.855 38.4671 107.855C39.1043 108.418 39.1043 109.473 39.1043 109.473C39.1043 110.655 38.2547 111.309 38.2547 111.309ZM54.2031 111.2C54.2031 111.2 55.0719 110.418 55.0719 108.691V107.382H51.8475V108.182H54.0872V108.855C54.0872 108.855 54.0872 110.055 53.5273 110.6C53.5273 110.6 52.9674 111.145 51.8861 111.145C51.8861 111.145 49.5885 111.145 49.5885 108.691V106.4C49.5885 106.4 49.5885 105.055 50.187 104.436C50.187 104.436 50.7663 103.836 51.8861 103.836C51.8861 103.836 52.8901 103.836 53.4694 104.327C53.4694 104.327 54.0486 104.818 54.0486 105.655V105.709H55.0526V105.655C55.0526 105.655 55.0526 104.873 54.6471 104.273C54.6471 104.273 54.261 103.655 53.5466 103.327C53.5466 103.327 52.8322 103 51.8668 103C51.8668 103 50.3801 103 49.4919 103.8C49.4919 103.8 48.6038 104.618 48.6038 106.364V108.636C48.6038 108.636 48.6038 110.382 49.4919 111.182C49.4919 111.182 50.3801 112 51.8668 112C51.8668 112 53.3342 112 54.2031 111.2ZM18.5414 111.091C18.5414 111.091 19.4102 110.273 19.4102 108.545V106.473C19.4102 106.473 19.4102 104.727 18.5414 103.927C18.5414 103.927 17.6725 103.109 16.1858 103.109H13V111.891H16.1858C16.1858 111.891 17.6725 111.891 18.5414 111.091ZM29.3731 103.109V103.945H24.7006V107H28.6973V107.855H24.7006V111.055H29.3731V111.891H23.7159V103.109H29.3731ZM43.2169 111.891H44.2209V103.109H43.2169V111.891ZM66.1547 103.109H65.1699V110.164L60.343 103.109H59.3583V111.891H60.343V104.818L65.1699 111.891H66.1547V103.109ZM76.3106 111.891V111.055H71.6188V107.855H75.6348V107H71.6188V103.945H76.3106V103.109H70.6341V111.891H76.3106ZM80.346 111.891V103.109H83.5318C85.0185 103.109 85.8873 103.927 85.8873 103.927C86.7755 104.727 86.7755 106.473 86.7755 106.473V108.545C86.7755 110.273 85.8873 111.091 85.8873 111.091C85.0185 111.891 83.5318 111.891 83.5318 111.891H80.346ZM104.249 111.255C103.496 111.891 102.183 111.891 102.183 111.891H98.6885V103.109H102.106C103.419 103.109 104.133 103.727 104.133 103.727C104.867 104.327 104.867 105.436 104.867 105.436C104.867 106.109 104.481 106.636 104.481 106.636C104.114 107.182 103.438 107.382 103.438 107.382C104.211 107.6 104.616 108.164 104.616 108.164C105.002 108.709 105.002 109.491 105.002 109.491C105.002 110.618 104.249 111.255 104.249 111.255ZM109.385 103.109L111.586 107.327L113.807 103.109H114.868L112.088 108.218V111.891H111.103V108.2L108.323 103.109H109.385ZM129.176 111.891C129.176 111.891 130.662 111.891 131.531 111.091C131.531 111.091 132.419 110.273 132.419 108.545V106.473C132.419 106.473 132.419 104.727 131.531 103.927C131.531 103.927 130.662 103.109 129.176 103.109H125.99V111.891H129.176ZM142.363 103.109V103.945H137.69V107H141.687V107.855H137.69V111.055H142.363V111.891H136.706V103.109H142.363ZM151.998 111.891H153.04L149.642 103.109H148.812L145.433 111.891H146.456L147.248 109.782H151.206L151.998 111.891ZM162.076 103.927C162.945 104.727 162.945 106.473 162.945 106.473V108.545C162.945 110.273 162.076 111.091 162.076 111.091C161.207 111.891 159.721 111.891 159.721 111.891H156.535V103.109H159.721C161.207 103.109 162.076 103.927 162.076 103.927ZM172.58 111.891H173.719L171.518 107.945C171.518 107.945 172.445 107.745 172.985 107.127C172.985 107.127 173.507 106.527 173.507 105.582C173.507 105.582 173.507 104.4 172.754 103.764C172.754 103.764 172.001 103.109 170.707 103.109H167.232V111.891H168.216V108.036H170.475L172.58 111.891ZM182.446 109.782L183.238 111.891H184.28L180.882 103.109H180.052L176.673 111.891H177.696L178.488 109.782H182.446ZM193.683 108.164C194.089 108.709 194.089 109.491 194.089 109.491C194.089 110.618 193.336 111.255 193.336 111.255C192.583 111.891 191.27 111.891 191.27 111.891H187.775V103.109H191.193C192.506 103.109 193.22 103.727 193.22 103.727C193.934 104.327 193.934 105.436 193.934 105.436C193.934 106.109 193.567 106.636 193.567 106.636C193.181 107.182 192.506 107.382 192.506 107.382C193.297 107.6 193.683 108.164 193.683 108.164ZM198.375 103.109V111.891H201.889C201.889 111.891 203.202 111.891 203.955 111.255C203.955 111.255 204.708 110.618 204.708 109.491C204.708 109.491 204.708 108.709 204.303 108.164C204.303 108.164 203.917 107.6 203.125 107.382C203.125 107.382 203.801 107.182 204.187 106.636C204.187 106.636 204.554 106.109 204.554 105.436C204.554 105.436 204.554 104.327 203.839 103.727C203.839 103.727 203.106 103.109 201.793 103.109H198.375ZM210.095 111.891H209.11V103.109H210.095V111.891ZM213.706 103.109H220V103.945H217.336V111.891H216.37V103.945H213.706V103.109ZM14.004 103.945H16.2051C16.2051 103.945 17.267 103.945 17.8463 104.564C17.8463 104.564 18.4255 105.182 18.4255 106.509V108.582C18.4255 108.582 18.4255 111.055 16.2051 111.055H14.004V103.945ZM83.5511 111.055C85.7715 111.055 85.7715 108.582 85.7715 108.582V106.509C85.7715 105.182 85.1922 104.564 85.1922 104.564C84.613 103.945 83.5511 103.945 83.5511 103.945H81.35V111.055H83.5511ZM103.4 104.327C103.4 104.327 103.882 104.709 103.882 105.473C103.882 105.473 103.882 106.236 103.38 106.618C103.38 106.618 102.878 107 101.99 107H99.6732V103.945H102.009C102.009 103.945 102.898 103.945 103.4 104.327ZM130.836 104.564C130.836 104.564 131.415 105.182 131.415 106.509V108.582C131.415 108.582 131.415 111.055 129.195 111.055H126.994V103.945H129.195C129.195 103.945 130.257 103.945 130.836 104.564ZM157.52 111.055H159.721C161.941 111.055 161.941 108.582 161.941 108.582V106.509C161.941 105.182 161.381 104.564 161.381 104.564C160.802 103.945 159.721 103.945 159.721 103.945H157.52V111.055ZM168.216 107.236V103.945H170.61C170.61 103.945 171.537 103.945 172.02 104.364C172.02 104.364 172.522 104.782 172.522 105.6C172.522 105.6 172.522 106.382 172.02 106.818C172.02 106.818 171.518 107.236 170.61 107.236H168.216ZM192.448 106.618C192.95 106.236 192.95 105.473 192.95 105.473C192.95 104.709 192.467 104.327 192.467 104.327C191.984 103.945 191.096 103.945 191.096 103.945H188.76V107H191.077C191.965 107 192.448 106.618 192.448 106.618ZM203.569 105.473C203.569 104.709 203.086 104.327 203.086 104.327C202.604 103.945 201.715 103.945 201.715 103.945H199.36V107H201.696C202.565 107 203.067 106.618 203.067 106.618C203.569 106.236 203.569 105.473 203.569 105.473ZM149.217 104.418L150.916 109H147.537L149.217 104.418ZM178.778 109L180.457 104.418L182.157 109H178.778ZM90.7722 107.891H94.4986V107.055H90.7722V107.891ZM121.8 107.891H118.074V107.055H121.8V107.891ZM99.6732 111.073H102.067C102.994 111.073 103.515 110.655 103.515 110.655C104.017 110.236 104.017 109.418 104.017 109.418C104.017 108.636 103.515 108.236 103.515 108.236C103.013 107.818 102.087 107.818 102.087 107.818H99.6732V111.073ZM188.76 111.073H191.154C192.081 111.073 192.583 110.655 192.583 110.655C193.104 110.236 193.104 109.418 193.104 109.418C193.104 108.636 192.602 108.236 192.602 108.236C192.081 107.818 191.154 107.818 191.154 107.818H188.76V111.073ZM199.36 107.818H201.773C201.773 107.818 202.7 107.818 203.221 108.236C203.221 108.236 203.723 108.636 203.723 109.418C203.723 109.418 203.723 110.236 203.202 110.655C203.202 110.655 202.7 111.073 201.754 111.073H199.36V107.818Z" fill="white"/>
<path fill-rule="evenodd" clip-rule="evenodd" d="M13 67H14.2996V92.5534H13V67ZM16.8988 92.5534V67H15.5992V92.5534H16.8988ZM22.0971 92.5534H18.1983V67H22.0971V92.5534ZM27.2954 92.5534H25.9959V67H27.2954V92.5534ZM28.595 92.5534H32.4938V67H28.595V92.5534ZM37.6921 67V92.5534H33.7934V67H37.6921ZM38.9917 67H40.2913V92.5534H38.9917V67ZM41.5909 92.5534H45.4896V67H41.5909V92.5534ZM50.688 67H49.3884V92.5534H50.688V67ZM53.2871 92.5534H51.9876V67H53.2871V92.5534ZM54.5867 92.5534V67H58.4855V92.5534H54.5867ZM59.7851 92.5534V67H61.0846V92.5534H59.7851ZM62.3842 67V92.5534H63.6838V67H62.3842ZM67.5826 92.5534H68.8822V67H67.5826V92.5534ZM74.0805 92.5534V67H70.1817V92.5534H74.0805ZM76.6797 67V92.5534H75.3801V67H76.6797ZM77.9793 92.5534V67H79.2788V92.5534H77.9793ZM84.4772 67H80.5784V92.5534H84.4772V67ZM88.3759 67V92.5534H89.6755V67H88.3759ZM90.9751 92.5534V67H94.8739V92.5534H90.9751ZM96.1735 92.5534H100.072V67H96.1735V92.5534ZM102.671 92.5534H101.372V67H102.671V92.5534ZM105.271 92.5534H103.971V67H105.271V92.5534ZM110.469 92.5534V67H106.57V92.5534H110.469ZM115.667 92.5534V67H114.368V92.5534H115.667ZM116.967 92.5534V67H120.866V92.5534H116.967ZM122.165 92.5534V67H123.465V92.5534H122.165ZM126.064 92.5534V67H124.764V92.5534H126.064ZM129.963 67V92.5534H131.262V67H129.963ZM136.461 67H132.562V92.5534H136.461V67ZM139.06 67V92.5534H137.76V67H139.06ZM144.258 67V92.5534H140.359V67H144.258ZM145.558 67V92.5534H146.857V67H145.558ZM150.756 67V92.5534H152.056V67H150.756ZM153.355 92.5534V67H157.254V92.5534H153.355ZM159.853 92.5534V67H158.554V92.5534H159.853ZM161.153 92.5534V67H165.051V92.5534H161.153ZM167.651 92.5534H166.351V67H167.651V92.5534ZM171.549 67V92.5534H172.849V67H171.549ZM178.047 67V92.5534H174.149V67H178.047ZM179.347 92.5534V67H180.646V92.5534H179.347ZM185.845 92.5534H181.946V67H185.845V92.5534ZM187.144 92.5534H188.444V67H187.144V92.5534ZM192.343 92.5534V67H196.242V92.5534H192.343ZM198.841 92.5534V67H197.541V92.5534H198.841ZM201.44 92.5534V67H200.14V92.5534H201.44ZM202.739 92.5534V67H204.039V92.5534H202.739ZM209.237 67H205.339V92.5534H209.237V67ZM214.436 67H210.537V92.5534H214.436V67ZM218.334 67H219.634V92.5534H218.334V67Z" fill="white"/>
<path d="M323.5 26.5L332.593 43H314.407L323.5 26.5Z" fill="white"/>
<rect x="377" y="27" width="17" height="17" fill="white"/>
</svg>
