<svg width="20" height="294" viewBox="0 0 20 294" fill="none" xmlns="http://www.w3.org/2000/svg">
<path d="M12.4185 84.2324L12.4185 82.7456L13.5244 82.7456L13.5244 84.2324L16 84.2324L16 85.5874L13.5244 85.5874L13.5244 90.4507L12.7261 90.4507L5.33594 85.6753L5.33594 84.2324L12.4185 84.2324ZM12.4185 88.9492L12.4185 85.5874L7.1377 85.5874L7.54785 85.8071L12.4185 88.9492ZM8.11914 74.1543C8.47559 74.1592 8.81006 74.2275 9.12256 74.3594C9.43018 74.4912 9.70117 74.6743 9.93555 74.9087C10.0479 75.021 10.1528 75.1455 10.2505 75.2822C10.3481 75.4189 10.436 75.5654 10.5142 75.7217C10.6313 75.4482 10.7778 75.2017 10.9536 74.9819C11.1245 74.7573 11.3223 74.5645 11.5469 74.4033C11.7715 74.2471 12.0156 74.1274 12.2793 74.0444C12.543 73.9565 12.8237 73.9126 13.1216 73.9126C13.605 73.9126 14.0347 74.0029 14.4106 74.1836C14.7866 74.3594 15.1016 74.5986 15.3555 74.9014C15.6143 75.209 15.812 75.5679 15.9487 75.978C16.0806 76.3882 16.1465 76.8276 16.1465 77.2964C16.1465 77.7749 16.0806 78.2217 15.9487 78.6367C15.8169 79.0469 15.6216 79.4033 15.3628 79.7061C15.1089 80.0137 14.7939 80.2554 14.418 80.4312C14.042 80.6069 13.6099 80.6948 13.1216 80.6948C12.8237 80.6948 12.543 80.6533 12.2793 80.5703C12.0107 80.4873 11.7642 80.3677 11.5396 80.2114C11.3198 80.0552 11.1221 79.8672 10.9463 79.6475C10.7705 79.4277 10.624 79.1812 10.5068 78.9077C10.3896 79.1421 10.2505 79.3545 10.0894 79.5449C9.92334 79.7354 9.73779 79.8965 9.53271 80.0283C9.33252 80.1602 9.11279 80.2627 8.87353 80.3359C8.63428 80.4092 8.38281 80.4458 8.11914 80.4458C7.65527 80.4458 7.24268 80.3677 6.88135 80.2114C6.51514 80.0552 6.20752 79.8379 5.9585 79.5596C5.70947 79.2861 5.51904 78.959 5.38721 78.5781C5.25537 78.1924 5.18945 77.7725 5.18945 77.3184C5.18945 76.8691 5.25537 76.4517 5.38721 76.0659C5.51904 75.6802 5.70947 75.3457 5.9585 75.0625C6.20752 74.7793 6.51514 74.5571 6.88135 74.396C7.24268 74.2349 7.65527 74.1543 8.11914 74.1543ZM13.0923 75.2676C12.7944 75.2676 12.521 75.3188 12.272 75.4214C12.0229 75.519 11.8081 75.6582 11.6274 75.8389C11.4517 76.0195 11.3149 76.2368 11.2173 76.4907C11.1196 76.7397 11.0708 77.0132 11.0708 77.311C11.0708 77.6187 11.1196 77.897 11.2173 78.146C11.3149 78.395 11.4517 78.6074 11.6274 78.7832C11.8081 78.959 12.0229 79.0957 12.272 79.1934C12.521 79.2861 12.7944 79.3325 13.0923 79.3325C13.3999 79.3325 13.6758 79.2861 13.9199 79.1934C14.1592 79.0957 14.3618 78.959 14.5278 78.7832C14.6938 78.6074 14.8208 78.395 14.9087 78.146C14.9966 77.8921 15.0405 77.6089 15.0405 77.2964C15.0405 76.9985 14.9966 76.7251 14.9087 76.4761C14.8208 76.2271 14.6938 76.0122 14.5278 75.8315C14.3618 75.6558 14.1592 75.519 13.9199 75.4214C13.6758 75.3188 13.3999 75.2676 13.0923 75.2676ZM8.14111 75.5166C7.87256 75.5166 7.62598 75.563 7.40137 75.6558C7.17676 75.7437 6.98144 75.8657 6.81543 76.022C6.6543 76.1831 6.52978 76.3735 6.44189 76.5933C6.34912 76.813 6.30273 77.0547 6.30273 77.3184C6.30273 77.582 6.34668 77.8213 6.43457 78.0361C6.51758 78.251 6.63965 78.4365 6.80078 78.5928C6.96191 78.749 7.15723 78.8711 7.38672 78.959C7.61133 79.042 7.86279 79.0835 8.14111 79.0835C8.41943 79.0835 8.6709 79.042 8.89551 78.959C9.11523 78.8711 9.30322 78.7466 9.45947 78.5854C9.6206 78.4292 9.74512 78.2437 9.83301 78.0288C9.91602 77.8091 9.95752 77.5674 9.95752 77.3037C9.95752 77.0449 9.91602 76.8057 9.83301 76.5859C9.74512 76.3662 9.6206 76.1758 9.45947 76.0146C9.30322 75.8584 9.11279 75.7363 8.88818 75.6484C8.66357 75.5605 8.41455 75.5166 8.14111 75.5166ZM6.09766 64.9551L16 69.3716L16 70.7925L6.52246 66.3906L6.52246 72.1621L5.33594 72.1621L5.33594 64.9551L6.09766 64.9551ZM6.09765 55.9463L16 60.3628L16 61.7837L6.52246 57.3818L6.52246 63.1533L5.33594 63.1533L5.33594 55.9463L6.09765 55.9463ZM15.1211 51.332C14.833 51.332 14.5864 51.2441 14.3813 51.0684C14.1763 50.8926 14.0737 50.6265 14.0737 50.27C14.0737 49.9185 14.1763 49.6523 14.3813 49.4717C14.5815 49.2861 14.8281 49.1934 15.1211 49.1934C15.4092 49.1934 15.6509 49.2861 15.8462 49.4717C16.0415 49.6572 16.1392 49.9233 16.1392 50.27C16.1392 50.6216 16.0415 50.8877 15.8462 51.0684C15.646 51.2441 15.4043 51.332 15.1211 51.332ZM11.9204 37.9873C12.5991 37.9873 13.2021 38.0654 13.7295 38.2217C14.252 38.3779 14.6914 38.6025 15.0478 38.8955C15.4092 39.1885 15.6826 39.5474 15.8682 39.9722C16.0537 40.397 16.1465 40.8828 16.1465 41.4297C16.1465 41.9717 16.0562 42.4575 15.8755 42.8872C15.6899 43.3169 15.4141 43.6807 15.0478 43.9785C14.6914 44.2764 14.252 44.5034 13.7295 44.6597C13.2021 44.8159 12.5991 44.894 11.9204 44.894L9.42285 44.894C8.74414 44.894 8.14355 44.8159 7.62109 44.6597C7.09375 44.5034 6.64941 44.2764 6.28808 43.9785C5.92676 43.6855 5.65332 43.3267 5.46777 42.9019C5.27734 42.4722 5.18213 41.9863 5.18213 41.4443C5.18213 40.8975 5.27734 40.4116 5.46777 39.9868C5.65332 39.5571 5.92676 39.1934 6.28808 38.8955C6.64941 38.6025 7.09375 38.3779 7.62109 38.2217C8.14355 38.0654 8.74414 37.9873 9.42285 37.9873L11.9204 37.9873ZM11.6494 43.5317L8.46338 39.3789C8.11181 39.418 7.80176 39.4888 7.5332 39.5913C7.25976 39.689 7.03271 39.8232 6.85205 39.9941C6.6665 40.1602 6.52734 40.3652 6.43457 40.6094C6.34179 40.8486 6.29541 41.127 6.29541 41.4443C6.29541 41.7666 6.34668 42.0522 6.44922 42.3013C6.54687 42.5454 6.69092 42.7529 6.88135 42.9238C7.1206 43.1289 7.43066 43.2827 7.81152 43.3853C8.1875 43.4829 8.62451 43.5317 9.12256 43.5317L10.9097 43.5317C11.0317 43.5317 11.1538 43.5317 11.2759 43.5317C11.3979 43.5317 11.5225 43.5317 11.6494 43.5317ZM12.2061 39.3496L10.6973 39.3496C10.624 39.3496 10.4849 39.3496 10.2798 39.3496C10.0698 39.3496 9.89648 39.3496 9.75976 39.3496L12.9312 43.4951C13.2876 43.4512 13.6025 43.373 13.876 43.2607C14.1445 43.1484 14.3667 43.002 14.5425 42.8213C14.7085 42.6553 14.8354 42.4551 14.9233 42.2207C15.0063 41.9863 15.0478 41.7227 15.0478 41.4297C15.0478 41.1221 15.0015 40.8486 14.9087 40.6094C14.8159 40.3701 14.6816 40.1675 14.5059 40.0015C14.2666 39.7769 13.9541 39.6133 13.5684 39.5107C13.1826 39.4033 12.7285 39.3496 12.2061 39.3496ZM16 29.1323L16 36.1196L15.0259 36.1196L11.144 32.626C10.7974 32.3135 10.4897 32.0522 10.2212 31.8423C9.95263 31.6323 9.70361 31.4639 9.47412 31.3369C9.24951 31.21 9.03711 31.1196 8.83691 31.0659C8.63183 31.0122 8.42187 30.9854 8.20703 30.9854C7.94336 30.9854 7.69677 31.0293 7.46728 31.1172C7.23291 31.2002 7.03027 31.3223 6.85937 31.4834C6.68847 31.6494 6.5542 31.8496 6.45654 32.084C6.354 32.3135 6.30273 32.5747 6.30273 32.8677C6.30273 33.2241 6.354 33.5342 6.45654 33.7979C6.55908 34.0566 6.70312 34.2715 6.88867 34.4424C7.0791 34.6182 7.30859 34.75 7.57715 34.8379C7.8457 34.9209 8.14599 34.9624 8.47802 34.9624L8.47802 36.3247C8.02881 36.3247 7.60644 36.2466 7.21094 36.0903C6.81054 35.9341 6.46142 35.707 6.16357 35.4092C5.86572 35.1162 5.6289 34.7573 5.45312 34.3325C5.27734 33.9028 5.18945 33.4146 5.18945 32.8677C5.18945 32.3647 5.26513 31.9131 5.4165 31.5127C5.56299 31.1074 5.76806 30.7656 6.03174 30.4873C6.29541 30.209 6.60791 29.9966 6.96924 29.8501C7.33056 29.6987 7.72363 29.623 8.14843 29.623C8.46582 29.623 8.78076 29.6768 9.09326 29.7842C9.40088 29.8916 9.70605 30.0356 10.0088 30.2163C10.3115 30.4019 10.6118 30.6167 10.9097 30.8608C11.2026 31.1001 11.4956 31.354 11.7886 31.6226L14.894 34.4863L14.894 29.1323L16 29.1323ZM15.1211 24.3057C14.833 24.3057 14.5864 24.2178 14.3813 24.042C14.1763 23.8662 14.0737 23.6001 14.0737 23.2437C14.0737 22.8921 14.1763 22.626 14.3813 22.4453C14.5815 22.2598 14.8281 22.167 15.1211 22.167C15.4092 22.167 15.6509 22.2598 15.8462 22.4453C16.0415 22.6309 16.1392 22.897 16.1392 23.2437C16.1392 23.5952 16.0415 23.8613 15.8462 24.042C15.646 24.2178 15.4043 24.3057 15.1211 24.3057ZM11.9204 10.9609C12.5991 10.9609 13.2021 11.0391 13.7295 11.1953C14.2519 11.3516 14.6914 11.5762 15.0478 11.8691C15.4092 12.1621 15.6826 12.521 15.8682 12.9458C16.0537 13.3706 16.1465 13.8564 16.1465 14.4033C16.1465 14.9453 16.0561 15.4312 15.8755 15.8608C15.6899 16.2905 15.4141 16.6543 15.0478 16.9521C14.6914 17.25 14.2519 17.4771 13.7295 17.6333C13.2021 17.7896 12.5991 17.8677 11.9204 17.8677L9.42285 17.8677C8.74414 17.8677 8.14355 17.7896 7.62109 17.6333C7.09375 17.4771 6.64941 17.25 6.28808 16.9521C5.92675 16.6592 5.65332 16.3003 5.46777 15.8755C5.27734 15.4458 5.18213 14.96 5.18213 14.418C5.18213 13.8711 5.27734 13.3853 5.46777 12.9604C5.65332 12.5308 5.92675 12.167 6.28808 11.8691C6.64941 11.5762 7.09375 11.3516 7.62109 11.1953C8.14355 11.0391 8.74414 10.9609 9.42285 10.9609L11.9204 10.9609ZM11.6494 16.5054L8.46338 12.3525C8.11181 12.3916 7.80175 12.4624 7.5332 12.5649C7.25976 12.6626 7.03271 12.7969 6.85205 12.9678C6.6665 13.1338 6.52734 13.3389 6.43457 13.583C6.34179 13.8223 6.29541 14.1006 6.29541 14.418C6.29541 14.7402 6.34668 15.0259 6.44922 15.2749C6.54687 15.519 6.69091 15.7266 6.88134 15.8975C7.1206 16.1025 7.43066 16.2563 7.81152 16.3589C8.1875 16.4565 8.62451 16.5054 9.12256 16.5054L10.9097 16.5054C11.0317 16.5054 11.1538 16.5054 11.2759 16.5054C11.3979 16.5054 11.5225 16.5054 11.6494 16.5054ZM12.2061 12.3232L10.6973 12.3232C10.624 12.3232 10.4849 12.3232 10.2798 12.3232C10.0698 12.3232 9.89648 12.3232 9.75976 12.3232L12.9311 16.4687C13.2876 16.4248 13.6025 16.3467 13.876 16.2344C14.1445 16.1221 14.3667 15.9756 14.5425 15.7949C14.7085 15.6289 14.8354 15.4287 14.9233 15.1943C15.0063 14.96 15.0478 14.6963 15.0478 14.4033C15.0478 14.0957 15.0015 13.8223 14.9087 13.583C14.8159 13.3437 14.6816 13.1411 14.5059 12.9751C14.2666 12.7505 13.9541 12.5869 13.5684 12.4844C13.1826 12.377 12.7285 12.3232 12.2061 12.3232ZM16 2.10596L16 9.09326L15.0259 9.09326L11.144 5.59961C10.7974 5.28711 10.4897 5.02588 10.2212 4.81592C9.95263 4.60596 9.70361 4.4375 9.47412 4.31055C9.24951 4.18359 9.03711 4.09326 8.83691 4.03955C8.63183 3.98584 8.42187 3.95898 8.20703 3.95898C7.94336 3.95898 7.69677 4.00293 7.46728 4.09082C7.23291 4.17383 7.03027 4.2959 6.85937 4.45703C6.68847 4.62305 6.5542 4.82324 6.45654 5.05762C6.354 5.28711 6.30273 5.54834 6.30273 5.84131C6.30273 6.19775 6.354 6.50781 6.45654 6.77148C6.55908 7.03027 6.70312 7.24512 6.88867 7.41602C7.0791 7.5918 7.30859 7.72363 7.57714 7.81152C7.8457 7.89453 8.14599 7.93603 8.47802 7.93603L8.47802 9.29834C8.02881 9.29834 7.60644 9.22021 7.21093 9.06396C6.81054 8.90771 6.46142 8.68066 6.16357 8.38281C5.86572 8.08984 5.6289 7.73096 5.45312 7.30615C5.27734 6.87646 5.18945 6.38818 5.18945 5.84131C5.18945 5.33838 5.26513 4.88672 5.4165 4.48633C5.56298 4.08105 5.76806 3.73926 6.03173 3.46094C6.29541 3.18262 6.60791 2.97021 6.96923 2.82373C7.33056 2.67236 7.72363 2.59668 8.14843 2.59668C8.46582 2.59668 8.78076 2.65039 9.09326 2.75781C9.40088 2.86523 9.70605 3.00928 10.0088 3.18994C10.3115 3.37549 10.6118 3.59033 10.9097 3.83447C11.2026 4.07373 11.4956 4.32764 11.7886 4.59619L14.894 7.45996L14.894 2.10596L16 2.10596Z" fill="white"/>
<rect x="5" y="270" width="7" height="24" fill="#D9D9D9"/>
</svg>
