<?xml version="1.0" standalone="no"?>
<!DOCTYPE svg PUBLIC "-//W3C//DTD SVG 20010904//EN"
 "http://www.w3.org/TR/2001/REC-SVG-20010904/DTD/svg10.dtd">
<svg version="1.0" xmlns="http://www.w3.org/2000/svg"
 width="117.000000pt" height="193.000000pt" viewBox="0 0 117.000000 193.000000"
 preserveAspectRatio="xMidYMid meet">

<g transform="translate(0.000000,193.000000) scale(0.100000,-0.100000)"
fill="#000000" stroke="none">
<path d="M541 1750 c-1 -30 -2 -146 -1 -257 1 -146 -2 -203 -11 -209 -13 -8
-6 -389 12 -684 5 -85 12 -240 15 -345 3 -104 8 -192 11 -195 7 -7 -8 1537
-17 1650 -5 73 -8 83 -9 40z m-4 -557 c-3 -10 -5 -2 -5 17 0 19 2 27 5 18 2
-10 2 -26 0 -35z m0 -45 c-3 -8 -6 -5 -6 6 -1 11 2 17 5 13 3 -3 4 -12 1 -19z
m0 -55 c-3 -10 -5 -4 -5 12 0 17 2 24 5 18 2 -7 2 -21 0 -30z"/>
<path d="M336 1200 c5 -137 57 -611 70 -631 7 -11 -37 -12 -68 0 -13 5 -70 12
-128 15 -167 11 -93 -13 125 -39 28 -4 56 -10 63 -14 7 -4 19 -49 27 -100 9
-51 20 -101 25 -110 5 -10 12 -42 16 -72 4 -30 9 -49 11 -42 5 13 -36 303 -43
315 -3 5 18 8 45 8 64 0 67 18 4 22 l-47 3 -12 55 c-15 61 -54 392 -54 451 0
21 -4 40 -8 43 -5 3 -9 45 -11 94 -1 49 -6 102 -11 118 -7 20 -8 -18 -4 -116z"/>
<path d="M770 1338 c0 -2 -7 -66 -15 -143 -9 -77 -20 -194 -26 -260 -6 -66
-12 -140 -15 -165 -6 -65 -23 -193 -26 -195 -2 -1 -16 -11 -32 -23 l-29 -22
32 -6 c28 -6 31 -10 31 -43 0 -20 -7 -74 -15 -121 -8 -47 -14 -92 -14 -100 2
-20 47 198 48 231 1 19 9 30 29 37 35 14 189 42 230 42 17 0 34 4 37 10 9 15
-65 12 -121 -5 -27 -8 -75 -15 -106 -15 l-57 0 4 58 c2 31 13 163 24 292 28
328 35 430 27 430 -3 0 -6 -1 -6 -2z"/>
<path d="M1030 600 c-9 -6 -10 -10 -3 -10 6 0 15 5 18 10 8 12 4 12 -15 0z"/>
</g>
</svg>
