<svg width="122" height="55" viewBox="0 0 122 55" fill="none" xmlns="http://www.w3.org/2000/svg">
<line x1="121.5" y1="3" x2="121.5" y2="50" stroke="white"/>
<path d="M8.20996 5.6123H5.14062V14H3.21289V5.6123H0.18457V4.04688H8.20996V5.6123ZM11.2725 7.62207C11.3682 7.48079 11.473 7.35091 11.5869 7.23242C11.7054 7.10938 11.8285 7.00228 11.9561 6.91113C12.152 6.76986 12.3685 6.66048 12.6055 6.58301C12.8424 6.50553 13.0931 6.4668 13.3574 6.4668C13.7448 6.4668 14.1003 6.52604 14.4238 6.64453C14.7474 6.75846 15.0254 6.93848 15.2578 7.18457C15.4902 7.43066 15.6702 7.7474 15.7979 8.13477C15.93 8.51758 15.9961 8.98014 15.9961 9.52246V14H14.0957V9.50879C14.0957 9.24447 14.0615 9.0166 13.9932 8.8252C13.9294 8.63379 13.8359 8.47884 13.7129 8.36035C13.5898 8.24186 13.4417 8.15527 13.2686 8.10059C13.0954 8.04134 12.8994 8.01172 12.6807 8.01172C12.512 8.01172 12.3548 8.02767 12.209 8.05957C12.0632 8.09147 11.931 8.13932 11.8125 8.20312C11.7031 8.25781 11.6029 8.32389 11.5117 8.40137C11.4251 8.47884 11.3454 8.56543 11.2725 8.66113V14H9.37207V3.5H11.2725V7.62207ZM21.3691 14.1367C20.7995 14.1367 20.2822 14.0433 19.8174 13.8564C19.3525 13.6696 18.9538 13.4144 18.6211 13.0908C18.2884 12.7718 18.0309 12.3958 17.8486 11.9629C17.6709 11.5254 17.582 11.0583 17.582 10.5615V10.2881C17.582 9.72298 17.6709 9.20801 17.8486 8.74316C18.0264 8.27376 18.2747 7.87044 18.5938 7.5332C18.9128 7.19596 19.291 6.93392 19.7285 6.74707C20.166 6.56022 20.6423 6.4668 21.1572 6.4668C21.6904 6.4668 22.1644 6.55566 22.5791 6.7334C22.9984 6.90658 23.3538 7.15267 23.6455 7.47168C23.9326 7.79069 24.1514 8.17578 24.3018 8.62695C24.4521 9.07357 24.5273 9.56803 24.5273 10.1104V10.917H19.5098V10.9375C19.5736 11.2337 19.6556 11.473 19.7559 11.6553C19.8561 11.833 19.9906 11.9948 20.1592 12.1406C20.3324 12.291 20.5306 12.4072 20.7539 12.4893C20.9772 12.5713 21.221 12.6123 21.4854 12.6123C21.859 12.6123 22.2214 12.5417 22.5723 12.4004C22.9232 12.2591 23.208 12.0472 23.4268 11.7646L24.377 12.79C24.1354 13.1318 23.7526 13.4417 23.2285 13.7197C22.7044 13.9977 22.0846 14.1367 21.3691 14.1367ZM21.1436 8.00488C20.9294 8.00488 20.7334 8.04362 20.5557 8.12109C20.3779 8.19401 20.223 8.30111 20.0908 8.44238C19.9541 8.58366 19.8402 8.75228 19.749 8.94824C19.6579 9.14421 19.5895 9.36296 19.5439 9.60449H22.6611V9.4541C22.6611 9.25358 22.6247 9.06445 22.5518 8.88672C22.4788 8.70898 22.3786 8.55404 22.251 8.42188C22.1234 8.29427 21.9661 8.19401 21.7793 8.12109C21.597 8.04362 21.3851 8.00488 21.1436 8.00488ZM7.80664 28.8828C7.77474 29.3841 7.66536 29.8353 7.47852 30.2363C7.29622 30.6374 7.05013 30.9792 6.74023 31.2617C6.43034 31.5443 6.0612 31.763 5.63281 31.918C5.20443 32.0684 4.73047 32.1436 4.21094 32.1436C3.80078 32.1436 3.42025 32.0911 3.06934 31.9863C2.72298 31.877 2.41081 31.722 2.13281 31.5215C1.8776 31.3346 1.64974 31.109 1.44922 30.8447C1.25326 30.5804 1.08691 30.2887 0.950195 29.9697C0.818034 29.6507 0.715495 29.2998 0.642578 28.917C0.574219 28.5342 0.540039 28.1286 0.540039 27.7002V26.3604C0.540039 25.9593 0.57194 25.5788 0.635742 25.2188C0.699544 24.8542 0.795247 24.5169 0.922852 24.207C1.06868 23.8288 1.26009 23.4915 1.49707 23.1953C1.73405 22.8991 2.00293 22.6484 2.30371 22.4434C2.57259 22.2702 2.86654 22.138 3.18555 22.0469C3.50911 21.9512 3.85547 21.9033 4.22461 21.9033C4.77148 21.9033 5.25684 21.9808 5.68066 22.1357C6.10905 22.2907 6.47363 22.5117 6.77441 22.7988C7.0752 23.0859 7.31217 23.4368 7.48535 23.8516C7.65853 24.2663 7.7679 24.7334 7.81348 25.2529H5.89941C5.88118 24.9567 5.83561 24.6969 5.7627 24.4736C5.69434 24.2503 5.59408 24.0635 5.46191 23.9131C5.3252 23.7673 5.1543 23.6579 4.94922 23.585C4.7487 23.5075 4.50716 23.4688 4.22461 23.4688C4.07422 23.4688 3.93294 23.4847 3.80078 23.5166C3.67318 23.5485 3.55469 23.5964 3.44531 23.6602C3.25846 23.7695 3.09896 23.9268 2.9668 24.1318C2.83919 24.3324 2.73665 24.5671 2.65918 24.8359C2.59993 25.0456 2.55664 25.278 2.5293 25.5332C2.50195 25.7839 2.48828 26.055 2.48828 26.3467V27.7002C2.48828 28.0967 2.50879 28.4521 2.5498 28.7666C2.59538 29.0765 2.66374 29.3477 2.75488 29.5801C2.81868 29.7396 2.89388 29.8809 2.98047 30.0039C3.07161 30.127 3.17415 30.2295 3.28809 30.3115C3.41113 30.4027 3.54785 30.471 3.69824 30.5166C3.85319 30.5576 4.02409 30.5781 4.21094 30.5781C4.46159 30.5781 4.68717 30.5462 4.8877 30.4824C5.08822 30.4186 5.25911 30.3184 5.40039 30.1816C5.54167 30.0449 5.65332 29.8695 5.73535 29.6553C5.81738 29.4411 5.86751 29.1836 5.88574 28.8828H7.80664ZM9.87793 24.6035H13.9043V30.4551H15.9072V32H9.87793V30.4551H11.9834V26.1553H9.87793V24.6035ZM11.8467 22.71C11.8467 22.5641 11.8717 22.4297 11.9219 22.3066C11.9766 22.179 12.0518 22.0697 12.1475 21.9785C12.2432 21.8919 12.3571 21.8236 12.4893 21.7734C12.626 21.7233 12.7764 21.6982 12.9404 21.6982C13.2777 21.6982 13.5443 21.7939 13.7402 21.9854C13.9408 22.1722 14.041 22.4137 14.041 22.71C14.041 23.0062 13.9408 23.25 13.7402 23.4414C13.5443 23.6283 13.2777 23.7217 12.9404 23.7217C12.7764 23.7217 12.626 23.6966 12.4893 23.6465C12.3571 23.5964 12.2432 23.5257 12.1475 23.4346C12.0518 23.348 11.9766 23.2432 11.9219 23.1201C11.8717 22.9925 11.8467 22.8558 11.8467 22.71ZM21.2666 22.792V24.6035H24.0283V26.0049H21.2666V29.1836C21.2666 29.4525 21.2962 29.6781 21.3555 29.8604C21.4193 30.0381 21.5081 30.1794 21.6221 30.2842C21.736 30.3936 21.8727 30.471 22.0322 30.5166C22.1963 30.5622 22.3786 30.585 22.5791 30.585C22.7249 30.585 22.873 30.5781 23.0234 30.5645C23.1784 30.5508 23.3265 30.5326 23.4678 30.5098C23.6045 30.4915 23.7321 30.471 23.8506 30.4482C23.9736 30.4255 24.0785 30.4027 24.165 30.3799L24.3496 31.6855C24.2174 31.763 24.0625 31.8314 23.8848 31.8906C23.707 31.9453 23.5179 31.9909 23.3174 32.0273C23.1169 32.0638 22.9072 32.0911 22.6885 32.1094C22.4743 32.1322 22.2624 32.1436 22.0527 32.1436C21.6471 32.1436 21.278 32.0911 20.9453 31.9863C20.6172 31.877 20.3369 31.7083 20.1045 31.4805C19.8675 31.2572 19.6852 30.9723 19.5576 30.626C19.43 30.2751 19.3662 29.8558 19.3662 29.3682V26.0049H17.6777V24.6035H19.3662V22.792H21.2666ZM27.3574 34.9873C27.1751 34.9873 27.0156 34.9759 26.8789 34.9531C26.7467 34.9303 26.5986 34.8962 26.4346 34.8506L26.667 33.4014C26.7445 33.4014 26.8424 33.4036 26.9609 33.4082C27.084 33.4173 27.182 33.4219 27.2549 33.4219C27.4053 33.4219 27.5374 33.374 27.6514 33.2783C27.7699 33.1872 27.8701 33.0869 27.9521 32.9775C28.0342 32.8682 28.0934 32.7861 28.1299 32.7314C28.1709 32.6768 28.2188 32.5993 28.2734 32.499L28.7109 31.6855L25.5801 24.6035H27.6582L29.3535 28.9375L29.5586 29.6895L29.8389 28.9512L31.5273 24.6035H33.626L29.873 33.1074C29.791 33.2943 29.6839 33.4971 29.5518 33.7158C29.4242 33.9346 29.2624 34.1374 29.0664 34.3242C28.8704 34.5111 28.6312 34.6683 28.3486 34.7959C28.0706 34.9235 27.7402 34.9873 27.3574 34.9873ZM5.79004 47.9219H2.80273L2.21484 50H0.191406L3.45215 40.0469H5.19531L8.39453 50H6.37109L5.79004 47.9219ZM3.27441 46.2881H5.33887L4.32031 42.624L3.27441 46.2881ZM9.17383 46.2471C9.17383 45.6865 9.23763 45.1738 9.36523 44.709C9.4974 44.2441 9.6888 43.8454 9.93945 43.5127C10.1901 43.18 10.4932 42.9225 10.8486 42.7402C11.2087 42.5579 11.6188 42.4668 12.0791 42.4668C12.4665 42.4668 12.806 42.5374 13.0977 42.6787C13.3939 42.8154 13.6559 43.0114 13.8838 43.2666V39.5H15.791V50H14.0752L13.9795 49.2275C13.7471 49.5146 13.4736 49.738 13.1592 49.8975C12.8447 50.057 12.4801 50.1367 12.0654 50.1367C11.6143 50.1367 11.2087 50.0433 10.8486 49.8564C10.4932 49.665 10.1924 49.403 9.94629 49.0703C9.69564 48.7376 9.50423 48.3434 9.37207 47.8877C9.23991 47.4274 9.17383 46.9284 9.17383 46.3906V46.2471ZM11.0742 46.3906C11.0742 46.7005 11.0993 46.9899 11.1494 47.2588C11.2041 47.5231 11.2907 47.7533 11.4092 47.9492C11.5277 48.1497 11.6803 48.307 11.8672 48.4209C12.054 48.5348 12.2819 48.5918 12.5508 48.5918C12.8789 48.5918 13.1501 48.5212 13.3643 48.3799C13.583 48.2386 13.7562 48.0449 13.8838 47.7988V44.8047C13.7562 44.554 13.5853 44.3604 13.3711 44.2236C13.1569 44.0824 12.888 44.0117 12.5645 44.0117C12.2956 44.0117 12.0654 44.071 11.874 44.1895C11.6872 44.3034 11.5345 44.4606 11.416 44.6611C11.2975 44.8662 11.2109 45.1055 11.1562 45.3789C11.1016 45.6478 11.0742 45.9372 11.0742 46.2471V46.3906ZM18.9629 42.6035L19.0176 43.499C19.1589 43.18 19.3525 42.9294 19.5986 42.7471C19.8493 42.5602 20.1523 42.4668 20.5078 42.4668C20.681 42.4668 20.8359 42.4873 20.9727 42.5283C21.1094 42.5693 21.2279 42.6331 21.3281 42.7197C21.4056 42.7835 21.4717 42.861 21.5264 42.9521C21.5856 43.0387 21.6357 43.139 21.6768 43.2529C21.7406 43.1436 21.8112 43.0456 21.8887 42.959C21.9707 42.8678 22.0596 42.7904 22.1553 42.7266C22.2738 42.6445 22.4082 42.5807 22.5586 42.5352C22.709 42.4896 22.873 42.4668 23.0508 42.4668C23.2741 42.4668 23.4814 42.5078 23.6729 42.5898C23.8688 42.6719 24.0397 42.8018 24.1855 42.9795C24.3268 43.1618 24.4362 43.3965 24.5137 43.6836C24.5957 43.9661 24.6367 44.3125 24.6367 44.7227V50H22.9072V44.7158C22.9072 44.5745 22.8913 44.4583 22.8594 44.3672C22.832 44.276 22.7933 44.2031 22.7432 44.1484C22.693 44.0983 22.6338 44.0641 22.5654 44.0459C22.5016 44.0231 22.4355 44.0117 22.3672 44.0117C22.2943 44.0117 22.2282 44.0208 22.1689 44.0391C22.1143 44.0573 22.0618 44.0824 22.0117 44.1143C21.9707 44.1462 21.9342 44.1826 21.9023 44.2236C21.8704 44.2601 21.8431 44.3034 21.8203 44.3535C21.8203 44.3626 21.8203 44.3831 21.8203 44.415C21.8203 44.4469 21.8203 44.4902 21.8203 44.5449V50H20.1455V44.709C20.1455 44.5677 20.1318 44.4515 20.1045 44.3604C20.0771 44.2692 20.0407 44.1986 19.9951 44.1484C19.945 44.0983 19.888 44.0641 19.8242 44.0459C19.7604 44.0231 19.6921 44.0117 19.6191 44.0117C19.5371 44.0117 19.4642 44.0254 19.4004 44.0527C19.3366 44.0801 19.2796 44.1188 19.2295 44.1689C19.193 44.2054 19.1611 44.2487 19.1338 44.2988C19.1064 44.349 19.0814 44.4036 19.0586 44.4629V50H17.3291V42.6035H18.9629ZM26.6943 42.6035H30.7207V48.4551H32.7236V50H26.6943V48.4551H28.7998V44.1553H26.6943V42.6035ZM28.6631 40.71C28.6631 40.5641 28.6882 40.4297 28.7383 40.3066C28.793 40.179 28.8682 40.0697 28.9639 39.9785C29.0596 39.8919 29.1735 39.8236 29.3057 39.7734C29.4424 39.7233 29.5928 39.6982 29.7568 39.6982C30.0941 39.6982 30.3607 39.7939 30.5566 39.9854C30.7572 40.1722 30.8574 40.4137 30.8574 40.71C30.8574 41.0062 30.7572 41.25 30.5566 41.4414C30.3607 41.6283 30.0941 41.7217 29.7568 41.7217C29.5928 41.7217 29.4424 41.6966 29.3057 41.6465C29.1735 41.5964 29.0596 41.5257 28.9639 41.4346C28.8682 41.348 28.793 41.2432 28.7383 41.1201C28.6882 40.9925 28.6631 40.8558 28.6631 40.71ZM34.5967 50V42.6035H36.3193L36.4355 43.6289C36.5312 43.4922 36.6361 43.3669 36.75 43.2529C36.8639 43.139 36.9847 43.0365 37.1123 42.9453C37.3311 42.7904 37.5703 42.6719 37.8301 42.5898C38.0898 42.5078 38.3656 42.4668 38.6572 42.4668C39.0309 42.4668 39.3727 42.5215 39.6826 42.6309C39.9925 42.7402 40.2614 42.9134 40.4893 43.1504C40.7126 43.3919 40.8857 43.7018 41.0088 44.0801C41.1364 44.4538 41.2002 44.9095 41.2002 45.4473V50H39.2998V45.4746C39.2998 45.1829 39.2656 44.9437 39.1973 44.7568C39.1335 44.5654 39.04 44.415 38.917 44.3057C38.7939 44.1963 38.6458 44.1211 38.4727 44.0801C38.2995 44.0345 38.1035 44.0117 37.8848 44.0117C37.7025 44.0117 37.5339 44.0322 37.3789 44.0732C37.2285 44.1143 37.0941 44.1758 36.9756 44.2578C36.8799 44.3171 36.7933 44.3877 36.7158 44.4697C36.6383 44.5518 36.5677 44.6429 36.5039 44.7432V50H34.5967ZM43.5107 42.6035H47.5371V48.4551H49.54V50H43.5107V48.4551H45.6162V44.1553H43.5107V42.6035ZM45.4795 40.71C45.4795 40.5641 45.5046 40.4297 45.5547 40.3066C45.6094 40.179 45.6846 40.0697 45.7803 39.9785C45.876 39.8919 45.9899 39.8236 46.1221 39.7734C46.2588 39.7233 46.4092 39.6982 46.5732 39.6982C46.9105 39.6982 47.1771 39.7939 47.373 39.9854C47.5736 40.1722 47.6738 40.4137 47.6738 40.71C47.6738 41.0062 47.5736 41.25 47.373 41.4414C47.1771 41.6283 46.9105 41.7217 46.5732 41.7217C46.4092 41.7217 46.2588 41.6966 46.1221 41.6465C45.9899 41.5964 45.876 41.5257 45.7803 41.4346C45.6846 41.348 45.6094 41.2432 45.5547 41.1201C45.5046 40.9925 45.4795 40.8558 45.4795 40.71ZM56.1846 47.9697C56.1846 47.8558 56.1572 47.7555 56.1025 47.6689C56.0524 47.5824 55.9613 47.5003 55.8291 47.4229C55.6924 47.3499 55.5124 47.2816 55.2891 47.2178C55.0658 47.154 54.7832 47.0902 54.4414 47.0264C54.0085 46.9398 53.612 46.8327 53.252 46.7051C52.8965 46.5729 52.5911 46.4134 52.3359 46.2266C52.0807 46.0443 51.8802 45.8324 51.7344 45.5908C51.5931 45.3493 51.5225 45.0713 51.5225 44.7568C51.5225 44.4515 51.5954 44.1598 51.7412 43.8818C51.887 43.6038 52.0967 43.36 52.3701 43.1504C52.6436 42.9408 52.9762 42.7744 53.3682 42.6514C53.7601 42.5283 54.2021 42.4668 54.6943 42.4668C55.2093 42.4668 55.6719 42.5283 56.082 42.6514C56.4922 42.7699 56.8408 42.9339 57.1279 43.1436C57.4105 43.3577 57.627 43.6107 57.7773 43.9023C57.9277 44.194 58.0029 44.5107 58.0029 44.8525H56.1025C56.1025 44.7295 56.082 44.6156 56.041 44.5107C56 44.4014 55.9385 44.3034 55.8564 44.2168C55.7425 44.1029 55.5876 44.0117 55.3916 43.9434C55.2002 43.875 54.9678 43.8408 54.6943 43.8408C54.4619 43.8408 54.2591 43.8636 54.0859 43.9092C53.9128 43.9548 53.7715 44.0186 53.6621 44.1006C53.5618 44.1735 53.4844 44.2601 53.4297 44.3604C53.3796 44.4561 53.3545 44.5586 53.3545 44.668C53.3545 44.7773 53.3773 44.8799 53.4229 44.9756C53.4684 45.0667 53.5505 45.1488 53.6689 45.2217C53.7829 45.2992 53.9401 45.3698 54.1406 45.4336C54.3411 45.4928 54.5964 45.5452 54.9062 45.5908C55.3529 45.6637 55.7676 45.7572 56.1504 45.8711C56.5332 45.985 56.8636 46.1309 57.1416 46.3086C57.4196 46.4909 57.6361 46.7119 57.791 46.9717C57.9505 47.2269 58.0303 47.5322 58.0303 47.8877C58.0303 48.2158 57.9505 48.5189 57.791 48.7969C57.6361 49.0703 57.415 49.3073 57.1279 49.5078C56.8363 49.7083 56.4854 49.8656 56.0752 49.9795C55.665 50.0889 55.207 50.1436 54.7012 50.1436C54.1452 50.1436 53.653 50.0706 53.2246 49.9248C52.8008 49.779 52.4453 49.5876 52.1582 49.3506C51.8711 49.1182 51.6523 48.8538 51.502 48.5576C51.3561 48.2568 51.2832 47.9561 51.2832 47.6553H53.0947C53.1084 47.8558 53.1631 48.029 53.2588 48.1748C53.3545 48.3161 53.4775 48.43 53.6279 48.5166C53.7783 48.6077 53.9492 48.6738 54.1406 48.7148C54.3366 48.7559 54.5371 48.7764 54.7422 48.7764C54.9883 48.7764 55.2025 48.7559 55.3848 48.7148C55.5716 48.6693 55.7243 48.61 55.8428 48.5371C55.9567 48.4642 56.041 48.3799 56.0957 48.2842C56.1549 48.1885 56.1846 48.0837 56.1846 47.9697ZM63.3076 40.792V42.6035H66.0693V44.0049H63.3076V47.1836C63.3076 47.4525 63.3372 47.6781 63.3965 47.8604C63.4603 48.0381 63.5492 48.1794 63.6631 48.2842C63.777 48.3936 63.9137 48.471 64.0732 48.5166C64.2373 48.5622 64.4196 48.585 64.6201 48.585C64.766 48.585 64.9141 48.5781 65.0645 48.5645C65.2194 48.5508 65.3675 48.5326 65.5088 48.5098C65.6455 48.4915 65.7731 48.471 65.8916 48.4482C66.0146 48.4255 66.1195 48.4027 66.2061 48.3799L66.3906 49.6855C66.2585 49.763 66.1035 49.8314 65.9258 49.8906C65.748 49.9453 65.5589 49.9909 65.3584 50.0273C65.1579 50.0638 64.9482 50.0911 64.7295 50.1094C64.5153 50.1322 64.3034 50.1436 64.0938 50.1436C63.6882 50.1436 63.319 50.0911 62.9863 49.9863C62.6582 49.877 62.3779 49.7083 62.1455 49.4805C61.9085 49.2572 61.7262 48.9723 61.5986 48.626C61.471 48.2751 61.4072 47.8558 61.4072 47.3682V44.0049H59.7188V42.6035H61.4072V40.792H63.3076ZM73.541 42.4668C73.8281 42.4668 74.0924 42.4873 74.334 42.5283C74.5801 42.5648 74.7783 42.6058 74.9287 42.6514L74.6484 44.5449C74.3978 44.4857 74.1403 44.4424 73.876 44.415C73.6162 44.3831 73.3678 44.3672 73.1309 44.3672C72.8848 44.3672 72.6615 44.39 72.4609 44.4355C72.265 44.4766 72.0895 44.5404 71.9346 44.627C71.7477 44.7272 71.5882 44.8548 71.4561 45.0098C71.3239 45.1647 71.2145 45.347 71.1279 45.5566V50H69.2275V42.6035H70.998L71.0732 43.6494L71.0869 43.8135C71.3877 43.3942 71.7477 43.0661 72.167 42.8291C72.5863 42.5876 73.0443 42.4668 73.541 42.4668ZM81.2588 50C81.2132 49.9089 81.1745 49.804 81.1426 49.6855C81.1107 49.5671 81.0833 49.4417 81.0605 49.3096C80.9557 49.4235 80.835 49.5306 80.6982 49.6309C80.5615 49.7311 80.4111 49.8177 80.2471 49.8906C80.0785 49.9681 79.8939 50.0273 79.6934 50.0684C79.4928 50.1139 79.2764 50.1367 79.0439 50.1367C78.6657 50.1367 78.3171 50.082 77.998 49.9727C77.6836 49.8633 77.4124 49.7106 77.1846 49.5146C76.9567 49.3187 76.779 49.0863 76.6514 48.8174C76.5238 48.5439 76.46 48.2477 76.46 47.9287C76.46 47.5186 76.5397 47.1562 76.6992 46.8418C76.8587 46.5228 77.098 46.2607 77.417 46.0557C77.7041 45.8688 78.0573 45.7275 78.4766 45.6318C78.9004 45.5316 79.3857 45.4814 79.9326 45.4814H80.9922V45.0439C80.9922 44.8708 80.9648 44.7158 80.9102 44.5791C80.8555 44.4378 80.7734 44.3171 80.6641 44.2168C80.5501 44.112 80.4066 44.0322 80.2334 43.9775C80.0648 43.9183 79.8665 43.8887 79.6387 43.8887C79.4382 43.8887 79.265 43.9137 79.1191 43.9639C78.9733 44.0094 78.8548 44.0755 78.7637 44.1621C78.6816 44.2396 78.6201 44.333 78.5791 44.4424C78.5426 44.5518 78.5244 44.6725 78.5244 44.8047H76.624C76.624 44.4902 76.6924 44.1917 76.8291 43.9092C76.9704 43.6266 77.1755 43.3783 77.4443 43.1641C77.7087 42.9499 78.0322 42.7812 78.415 42.6582C78.8024 42.5306 79.2445 42.4668 79.7412 42.4668C80.1878 42.4668 80.6025 42.5215 80.9854 42.6309C81.3727 42.7402 81.7077 42.902 81.9902 43.1162C82.2728 43.3304 82.4938 43.6016 82.6533 43.9297C82.8128 44.2533 82.8926 44.6292 82.8926 45.0576V48.2295C82.8926 48.626 82.9176 48.9541 82.9678 49.2139C83.0179 49.4736 83.0908 49.6969 83.1865 49.8838V50H81.2588ZM79.4473 48.667C79.6387 48.667 79.8164 48.6442 79.9805 48.5986C80.1445 48.5531 80.2926 48.4938 80.4248 48.4209C80.557 48.348 80.6709 48.266 80.7666 48.1748C80.8623 48.0791 80.9375 47.9834 80.9922 47.8877V46.6162H80.0215C79.7253 46.6162 79.4723 46.6458 79.2627 46.7051C79.0531 46.7598 78.8822 46.8372 78.75 46.9375C78.6178 47.0423 78.5199 47.1676 78.4561 47.3135C78.3923 47.4548 78.3604 47.6097 78.3604 47.7783C78.3604 47.9105 78.3831 48.0335 78.4287 48.1475C78.4788 48.2568 78.5495 48.3503 78.6406 48.4277C78.7318 48.5007 78.8434 48.5599 78.9756 48.6055C79.1123 48.6465 79.2695 48.667 79.4473 48.667ZM88.5322 40.792V42.6035H91.2939V44.0049H88.5322V47.1836C88.5322 47.4525 88.5618 47.6781 88.6211 47.8604C88.6849 48.0381 88.7738 48.1794 88.8877 48.2842C89.0016 48.3936 89.1383 48.471 89.2979 48.5166C89.4619 48.5622 89.6442 48.585 89.8447 48.585C89.9906 48.585 90.1387 48.5781 90.2891 48.5645C90.444 48.5508 90.5921 48.5326 90.7334 48.5098C90.8701 48.4915 90.9977 48.471 91.1162 48.4482C91.2393 48.4255 91.3441 48.4027 91.4307 48.3799L91.6152 49.6855C91.4831 49.763 91.3281 49.8314 91.1504 49.8906C90.9727 49.9453 90.7835 49.9909 90.583 50.0273C90.3825 50.0638 90.1729 50.0911 89.9541 50.1094C89.7399 50.1322 89.528 50.1436 89.3184 50.1436C88.9128 50.1436 88.5436 50.0911 88.2109 49.9863C87.8828 49.877 87.6025 49.7083 87.3701 49.4805C87.1331 49.2572 86.9508 48.9723 86.8232 48.626C86.6956 48.2751 86.6318 47.8558 86.6318 47.3682V44.0049H84.9434V42.6035H86.6318V40.792H88.5322ZM93.96 42.6035H97.9863V48.4551H99.9893V50H93.96V48.4551H96.0654V44.1553H93.96V42.6035ZM95.9287 40.71C95.9287 40.5641 95.9538 40.4297 96.0039 40.3066C96.0586 40.179 96.1338 40.0697 96.2295 39.9785C96.3252 39.8919 96.4391 39.8236 96.5713 39.7734C96.708 39.7233 96.8584 39.6982 97.0225 39.6982C97.3597 39.6982 97.6263 39.7939 97.8223 39.9854C98.0228 40.1722 98.123 40.4137 98.123 40.71C98.123 41.0062 98.0228 41.25 97.8223 41.4414C97.6263 41.6283 97.3597 41.7217 97.0225 41.7217C96.8584 41.7217 96.708 41.6966 96.5713 41.6465C96.4391 41.5964 96.3252 41.5257 96.2295 41.4346C96.1338 41.348 96.0586 41.2432 96.0039 41.1201C95.9538 40.9925 95.9287 40.8558 95.9287 40.71ZM101.603 46.2334C101.603 45.6956 101.68 45.1989 101.835 44.7432C101.99 44.2829 102.218 43.8841 102.519 43.5469C102.815 43.2096 103.177 42.9453 103.605 42.7539C104.038 42.5625 104.533 42.4668 105.089 42.4668C105.645 42.4668 106.139 42.5625 106.572 42.7539C107.005 42.9453 107.372 43.2096 107.673 43.5469C107.969 43.8841 108.195 44.2829 108.35 44.7432C108.505 45.1989 108.582 45.6956 108.582 46.2334V46.377C108.582 46.9193 108.505 47.4206 108.35 47.8809C108.195 48.3366 107.969 48.7331 107.673 49.0703C107.377 49.4076 107.012 49.6719 106.579 49.8633C106.146 50.0501 105.654 50.1436 105.103 50.1436C104.547 50.1436 104.05 50.0501 103.612 49.8633C103.179 49.6719 102.815 49.4076 102.519 49.0703C102.218 48.7331 101.99 48.3366 101.835 47.8809C101.68 47.4206 101.603 46.9193 101.603 46.377V46.2334ZM103.503 46.377C103.503 46.6868 103.533 46.9785 103.592 47.252C103.651 47.5208 103.744 47.7555 103.872 47.9561C104 48.1611 104.164 48.3229 104.364 48.4414C104.569 48.5599 104.815 48.6191 105.103 48.6191C105.381 48.6191 105.62 48.5599 105.82 48.4414C106.021 48.3229 106.185 48.1611 106.312 47.9561C106.436 47.7555 106.527 47.5208 106.586 47.252C106.645 46.9785 106.675 46.6868 106.675 46.377V46.2334C106.675 45.9326 106.645 45.6478 106.586 45.3789C106.527 45.11 106.436 44.873 106.312 44.668C106.185 44.4629 106.021 44.3011 105.82 44.1826C105.62 44.0641 105.376 44.0049 105.089 44.0049C104.806 44.0049 104.565 44.0641 104.364 44.1826C104.164 44.3011 104 44.4629 103.872 44.668C103.744 44.873 103.651 45.11 103.592 45.3789C103.533 45.6478 103.503 45.9326 103.503 46.2334V46.377ZM110.271 50V42.6035H111.993L112.109 43.6289C112.205 43.4922 112.31 43.3669 112.424 43.2529C112.538 43.139 112.659 43.0365 112.786 42.9453C113.005 42.7904 113.244 42.6719 113.504 42.5898C113.764 42.5078 114.039 42.4668 114.331 42.4668C114.705 42.4668 115.047 42.5215 115.356 42.6309C115.666 42.7402 115.935 42.9134 116.163 43.1504C116.386 43.3919 116.56 43.7018 116.683 44.0801C116.81 44.4538 116.874 44.9095 116.874 45.4473V50H114.974V45.4746C114.974 45.1829 114.939 44.9437 114.871 44.7568C114.807 44.5654 114.714 44.415 114.591 44.3057C114.468 44.1963 114.32 44.1211 114.146 44.0801C113.973 44.0345 113.777 44.0117 113.559 44.0117C113.376 44.0117 113.208 44.0322 113.053 44.0732C112.902 44.1143 112.768 44.1758 112.649 44.2578C112.554 44.3171 112.467 44.3877 112.39 44.4697C112.312 44.5518 112.242 44.6429 112.178 44.7432V50H110.271Z" fill="white"/>
</svg>
