<svg width="117" height="48" viewBox="0 0 117 48" fill="none" xmlns="http://www.w3.org/2000/svg">
<path d="M8.20996 2.6123H5.14062V11H3.21289V2.6123H0.18457V1.04688H8.20996V2.6123ZM11.2725 4.62207C11.3682 4.48079 11.473 4.35091 11.5869 4.23242C11.7054 4.10938 11.8285 4.00228 11.9561 3.91113C12.152 3.76986 12.3685 3.66048 12.6055 3.58301C12.8424 3.50553 13.0931 3.4668 13.3574 3.4668C13.7448 3.4668 14.1003 3.52604 14.4238 3.64453C14.7474 3.75846 15.0254 3.93848 15.2578 4.18457C15.4902 4.43066 15.6702 4.7474 15.7979 5.13477C15.93 5.51758 15.9961 5.98014 15.9961 6.52246V11H14.0957V6.50879C14.0957 6.24447 14.0615 6.0166 13.9932 5.8252C13.9294 5.63379 13.8359 5.47884 13.7129 5.36035C13.5898 5.24186 13.4417 5.15527 13.2686 5.10059C13.0954 5.04134 12.8994 5.01172 12.6807 5.01172C12.512 5.01172 12.3548 5.02767 12.209 5.05957C12.0632 5.09147 11.931 5.13932 11.8125 5.20312C11.7031 5.25781 11.6029 5.32389 11.5117 5.40137C11.4251 5.47884 11.3454 5.56543 11.2725 5.66113V11H9.37207V0.5H11.2725V4.62207ZM21.3691 11.1367C20.7995 11.1367 20.2822 11.0433 19.8174 10.8564C19.3525 10.6696 18.9538 10.4144 18.6211 10.0908C18.2884 9.77181 18.0309 9.39583 17.8486 8.96289C17.6709 8.52539 17.582 8.05827 17.582 7.56152V7.28809C17.582 6.72298 17.6709 6.20801 17.8486 5.74316C18.0264 5.27376 18.2747 4.87044 18.5938 4.5332C18.9128 4.19596 19.291 3.93392 19.7285 3.74707C20.166 3.56022 20.6423 3.4668 21.1572 3.4668C21.6904 3.4668 22.1644 3.55566 22.5791 3.7334C22.9984 3.90658 23.3538 4.15267 23.6455 4.47168C23.9326 4.79069 24.1514 5.17578 24.3018 5.62695C24.4521 6.07357 24.5273 6.56803 24.5273 7.11035V7.91699H19.5098V7.9375C19.5736 8.23372 19.6556 8.47298 19.7559 8.65527C19.8561 8.83301 19.9906 8.99479 20.1592 9.14062C20.3324 9.29102 20.5306 9.40723 20.7539 9.48926C20.9772 9.57129 21.221 9.6123 21.4854 9.6123C21.859 9.6123 22.2214 9.54167 22.5723 9.40039C22.9232 9.25911 23.208 9.0472 23.4268 8.76465L24.377 9.79004C24.1354 10.1318 23.7526 10.4417 23.2285 10.7197C22.7044 10.9977 22.0846 11.1367 21.3691 11.1367ZM21.1436 5.00488C20.9294 5.00488 20.7334 5.04362 20.5557 5.12109C20.3779 5.19401 20.223 5.30111 20.0908 5.44238C19.9541 5.58366 19.8402 5.75228 19.749 5.94824C19.6579 6.14421 19.5895 6.36296 19.5439 6.60449H22.6611V6.4541C22.6611 6.25358 22.6247 6.06445 22.5518 5.88672C22.4788 5.70898 22.3786 5.55404 22.251 5.42188C22.1234 5.29427 21.9661 5.19401 21.7793 5.12109C21.597 5.04362 21.3851 5.00488 21.1436 5.00488ZM7.80664 25.8828C7.77474 26.3841 7.66536 26.8353 7.47852 27.2363C7.29622 27.6374 7.05013 27.9792 6.74023 28.2617C6.43034 28.5443 6.0612 28.763 5.63281 28.918C5.20443 29.0684 4.73047 29.1436 4.21094 29.1436C3.80078 29.1436 3.42025 29.0911 3.06934 28.9863C2.72298 28.877 2.41081 28.722 2.13281 28.5215C1.8776 28.3346 1.64974 28.109 1.44922 27.8447C1.25326 27.5804 1.08691 27.2887 0.950195 26.9697C0.818034 26.6507 0.715495 26.2998 0.642578 25.917C0.574219 25.5342 0.540039 25.1286 0.540039 24.7002V23.3604C0.540039 22.9593 0.57194 22.5788 0.635742 22.2188C0.699544 21.8542 0.795247 21.5169 0.922852 21.207C1.06868 20.8288 1.26009 20.4915 1.49707 20.1953C1.73405 19.8991 2.00293 19.6484 2.30371 19.4434C2.57259 19.2702 2.86654 19.138 3.18555 19.0469C3.50911 18.9512 3.85547 18.9033 4.22461 18.9033C4.77148 18.9033 5.25684 18.9808 5.68066 19.1357C6.10905 19.2907 6.47363 19.5117 6.77441 19.7988C7.0752 20.0859 7.31217 20.4368 7.48535 20.8516C7.65853 21.2663 7.7679 21.7334 7.81348 22.2529H5.89941C5.88118 21.9567 5.83561 21.6969 5.7627 21.4736C5.69434 21.2503 5.59408 21.0635 5.46191 20.9131C5.3252 20.7673 5.1543 20.6579 4.94922 20.585C4.7487 20.5075 4.50716 20.4688 4.22461 20.4688C4.07422 20.4688 3.93294 20.4847 3.80078 20.5166C3.67318 20.5485 3.55469 20.5964 3.44531 20.6602C3.25846 20.7695 3.09896 20.9268 2.9668 21.1318C2.83919 21.3324 2.73665 21.5671 2.65918 21.8359C2.59993 22.0456 2.55664 22.278 2.5293 22.5332C2.50195 22.7839 2.48828 23.055 2.48828 23.3467V24.7002C2.48828 25.0967 2.50879 25.4521 2.5498 25.7666C2.59538 26.0765 2.66374 26.3477 2.75488 26.5801C2.81868 26.7396 2.89388 26.8809 2.98047 27.0039C3.07161 27.127 3.17415 27.2295 3.28809 27.3115C3.41113 27.4027 3.54785 27.471 3.69824 27.5166C3.85319 27.5576 4.02409 27.5781 4.21094 27.5781C4.46159 27.5781 4.68717 27.5462 4.8877 27.4824C5.08822 27.4186 5.25911 27.3184 5.40039 27.1816C5.54167 27.0449 5.65332 26.8695 5.73535 26.6553C5.81738 26.4411 5.86751 26.1836 5.88574 25.8828H7.80664ZM9.87793 21.6035H13.9043V27.4551H15.9072V29H9.87793V27.4551H11.9834V23.1553H9.87793V21.6035ZM11.8467 19.71C11.8467 19.5641 11.8717 19.4297 11.9219 19.3066C11.9766 19.179 12.0518 19.0697 12.1475 18.9785C12.2432 18.8919 12.3571 18.8236 12.4893 18.7734C12.626 18.7233 12.7764 18.6982 12.9404 18.6982C13.2777 18.6982 13.5443 18.7939 13.7402 18.9854C13.9408 19.1722 14.041 19.4137 14.041 19.71C14.041 20.0062 13.9408 20.25 13.7402 20.4414C13.5443 20.6283 13.2777 20.7217 12.9404 20.7217C12.7764 20.7217 12.626 20.6966 12.4893 20.6465C12.3571 20.5964 12.2432 20.5257 12.1475 20.4346C12.0518 20.348 11.9766 20.2432 11.9219 20.1201C11.8717 19.9925 11.8467 19.8558 11.8467 19.71ZM21.2666 19.792V21.6035H24.0283V23.0049H21.2666V26.1836C21.2666 26.4525 21.2962 26.6781 21.3555 26.8604C21.4193 27.0381 21.5081 27.1794 21.6221 27.2842C21.736 27.3936 21.8727 27.471 22.0322 27.5166C22.1963 27.5622 22.3786 27.585 22.5791 27.585C22.7249 27.585 22.873 27.5781 23.0234 27.5645C23.1784 27.5508 23.3265 27.5326 23.4678 27.5098C23.6045 27.4915 23.7321 27.471 23.8506 27.4482C23.9736 27.4255 24.0785 27.4027 24.165 27.3799L24.3496 28.6855C24.2174 28.763 24.0625 28.8314 23.8848 28.8906C23.707 28.9453 23.5179 28.9909 23.3174 29.0273C23.1169 29.0638 22.9072 29.0911 22.6885 29.1094C22.4743 29.1322 22.2624 29.1436 22.0527 29.1436C21.6471 29.1436 21.278 29.0911 20.9453 28.9863C20.6172 28.877 20.3369 28.7083 20.1045 28.4805C19.8675 28.2572 19.6852 27.9723 19.5576 27.626C19.43 27.2751 19.3662 26.8558 19.3662 26.3682V23.0049H17.6777V21.6035H19.3662V19.792H21.2666ZM27.3574 31.9873C27.1751 31.9873 27.0156 31.9759 26.8789 31.9531C26.7467 31.9303 26.5986 31.8962 26.4346 31.8506L26.667 30.4014C26.7445 30.4014 26.8424 30.4036 26.9609 30.4082C27.084 30.4173 27.182 30.4219 27.2549 30.4219C27.4053 30.4219 27.5374 30.374 27.6514 30.2783C27.7699 30.1872 27.8701 30.0869 27.9521 29.9775C28.0342 29.8682 28.0934 29.7861 28.1299 29.7314C28.1709 29.6768 28.2188 29.5993 28.2734 29.499L28.7109 28.6855L25.5801 21.6035H27.6582L29.3535 25.9375L29.5586 26.6895L29.8389 25.9512L31.5273 21.6035H33.626L29.873 30.1074C29.791 30.2943 29.6839 30.4971 29.5518 30.7158C29.4242 30.9346 29.2624 31.1374 29.0664 31.3242C28.8704 31.5111 28.6312 31.6683 28.3486 31.7959C28.0706 31.9235 27.7402 31.9873 27.3574 31.9873ZM5.79004 44.9219H2.80273L2.21484 47H0.191406L3.45215 37.0469H5.19531L8.39453 47H6.37109L5.79004 44.9219ZM3.27441 43.2881H5.33887L4.32031 39.624L3.27441 43.2881ZM9.17383 43.2471C9.17383 42.6865 9.23763 42.1738 9.36523 41.709C9.4974 41.2441 9.6888 40.8454 9.93945 40.5127C10.1901 40.18 10.4932 39.9225 10.8486 39.7402C11.2087 39.5579 11.6188 39.4668 12.0791 39.4668C12.4665 39.4668 12.806 39.5374 13.0977 39.6787C13.3939 39.8154 13.6559 40.0114 13.8838 40.2666V36.5H15.791V47H14.0752L13.9795 46.2275C13.7471 46.5146 13.4736 46.738 13.1592 46.8975C12.8447 47.057 12.4801 47.1367 12.0654 47.1367C11.6143 47.1367 11.2087 47.0433 10.8486 46.8564C10.4932 46.665 10.1924 46.403 9.94629 46.0703C9.69564 45.7376 9.50423 45.3434 9.37207 44.8877C9.23991 44.4274 9.17383 43.9284 9.17383 43.3906V43.2471ZM11.0742 43.3906C11.0742 43.7005 11.0993 43.9899 11.1494 44.2588C11.2041 44.5231 11.2907 44.7533 11.4092 44.9492C11.5277 45.1497 11.6803 45.307 11.8672 45.4209C12.054 45.5348 12.2819 45.5918 12.5508 45.5918C12.8789 45.5918 13.1501 45.5212 13.3643 45.3799C13.583 45.2386 13.7562 45.0449 13.8838 44.7988V41.8047C13.7562 41.554 13.5853 41.3604 13.3711 41.2236C13.1569 41.0824 12.888 41.0117 12.5645 41.0117C12.2956 41.0117 12.0654 41.071 11.874 41.1895C11.6872 41.3034 11.5345 41.4606 11.416 41.6611C11.2975 41.8662 11.2109 42.1055 11.1562 42.3789C11.1016 42.6478 11.0742 42.9372 11.0742 43.2471V43.3906ZM18.9629 39.6035L19.0176 40.499C19.1589 40.18 19.3525 39.9294 19.5986 39.7471C19.8493 39.5602 20.1523 39.4668 20.5078 39.4668C20.681 39.4668 20.8359 39.4873 20.9727 39.5283C21.1094 39.5693 21.2279 39.6331 21.3281 39.7197C21.4056 39.7835 21.4717 39.861 21.5264 39.9521C21.5856 40.0387 21.6357 40.139 21.6768 40.2529C21.7406 40.1436 21.8112 40.0456 21.8887 39.959C21.9707 39.8678 22.0596 39.7904 22.1553 39.7266C22.2738 39.6445 22.4082 39.5807 22.5586 39.5352C22.709 39.4896 22.873 39.4668 23.0508 39.4668C23.2741 39.4668 23.4814 39.5078 23.6729 39.5898C23.8688 39.6719 24.0397 39.8018 24.1855 39.9795C24.3268 40.1618 24.4362 40.3965 24.5137 40.6836C24.5957 40.9661 24.6367 41.3125 24.6367 41.7227V47H22.9072V41.7158C22.9072 41.5745 22.8913 41.4583 22.8594 41.3672C22.832 41.276 22.7933 41.2031 22.7432 41.1484C22.693 41.0983 22.6338 41.0641 22.5654 41.0459C22.5016 41.0231 22.4355 41.0117 22.3672 41.0117C22.2943 41.0117 22.2282 41.0208 22.1689 41.0391C22.1143 41.0573 22.0618 41.0824 22.0117 41.1143C21.9707 41.1462 21.9342 41.1826 21.9023 41.2236C21.8704 41.2601 21.8431 41.3034 21.8203 41.3535C21.8203 41.3626 21.8203 41.3831 21.8203 41.415C21.8203 41.4469 21.8203 41.4902 21.8203 41.5449V47H20.1455V41.709C20.1455 41.5677 20.1318 41.4515 20.1045 41.3604C20.0771 41.2692 20.0407 41.1986 19.9951 41.1484C19.945 41.0983 19.888 41.0641 19.8242 41.0459C19.7604 41.0231 19.6921 41.0117 19.6191 41.0117C19.5371 41.0117 19.4642 41.0254 19.4004 41.0527C19.3366 41.0801 19.2796 41.1188 19.2295 41.1689C19.193 41.2054 19.1611 41.2487 19.1338 41.2988C19.1064 41.349 19.0814 41.4036 19.0586 41.4629V47H17.3291V39.6035H18.9629ZM26.6943 39.6035H30.7207V45.4551H32.7236V47H26.6943V45.4551H28.7998V41.1553H26.6943V39.6035ZM28.6631 37.71C28.6631 37.5641 28.6882 37.4297 28.7383 37.3066C28.793 37.179 28.8682 37.0697 28.9639 36.9785C29.0596 36.8919 29.1735 36.8236 29.3057 36.7734C29.4424 36.7233 29.5928 36.6982 29.7568 36.6982C30.0941 36.6982 30.3607 36.7939 30.5566 36.9854C30.7572 37.1722 30.8574 37.4137 30.8574 37.71C30.8574 38.0062 30.7572 38.25 30.5566 38.4414C30.3607 38.6283 30.0941 38.7217 29.7568 38.7217C29.5928 38.7217 29.4424 38.6966 29.3057 38.6465C29.1735 38.5964 29.0596 38.5257 28.9639 38.4346C28.8682 38.348 28.793 38.2432 28.7383 38.1201C28.6882 37.9925 28.6631 37.8558 28.6631 37.71ZM34.5967 47V39.6035H36.3193L36.4355 40.6289C36.5312 40.4922 36.6361 40.3669 36.75 40.2529C36.8639 40.139 36.9847 40.0365 37.1123 39.9453C37.3311 39.7904 37.5703 39.6719 37.8301 39.5898C38.0898 39.5078 38.3656 39.4668 38.6572 39.4668C39.0309 39.4668 39.3727 39.5215 39.6826 39.6309C39.9925 39.7402 40.2614 39.9134 40.4893 40.1504C40.7126 40.3919 40.8857 40.7018 41.0088 41.0801C41.1364 41.4538 41.2002 41.9095 41.2002 42.4473V47H39.2998V42.4746C39.2998 42.1829 39.2656 41.9437 39.1973 41.7568C39.1335 41.5654 39.04 41.415 38.917 41.3057C38.7939 41.1963 38.6458 41.1211 38.4727 41.0801C38.2995 41.0345 38.1035 41.0117 37.8848 41.0117C37.7025 41.0117 37.5339 41.0322 37.3789 41.0732C37.2285 41.1143 37.0941 41.1758 36.9756 41.2578C36.8799 41.3171 36.7933 41.3877 36.7158 41.4697C36.6383 41.5518 36.5677 41.6429 36.5039 41.7432V47H34.5967ZM43.5107 39.6035H47.5371V45.4551H49.54V47H43.5107V45.4551H45.6162V41.1553H43.5107V39.6035ZM45.4795 37.71C45.4795 37.5641 45.5046 37.4297 45.5547 37.3066C45.6094 37.179 45.6846 37.0697 45.7803 36.9785C45.876 36.8919 45.9899 36.8236 46.1221 36.7734C46.2588 36.7233 46.4092 36.6982 46.5732 36.6982C46.9105 36.6982 47.1771 36.7939 47.373 36.9854C47.5736 37.1722 47.6738 37.4137 47.6738 37.71C47.6738 38.0062 47.5736 38.25 47.373 38.4414C47.1771 38.6283 46.9105 38.7217 46.5732 38.7217C46.4092 38.7217 46.2588 38.6966 46.1221 38.6465C45.9899 38.5964 45.876 38.5257 45.7803 38.4346C45.6846 38.348 45.6094 38.2432 45.5547 38.1201C45.5046 37.9925 45.4795 37.8558 45.4795 37.71ZM56.1846 44.9697C56.1846 44.8558 56.1572 44.7555 56.1025 44.6689C56.0524 44.5824 55.9613 44.5003 55.8291 44.4229C55.6924 44.3499 55.5124 44.2816 55.2891 44.2178C55.0658 44.154 54.7832 44.0902 54.4414 44.0264C54.0085 43.9398 53.612 43.8327 53.252 43.7051C52.8965 43.5729 52.5911 43.4134 52.3359 43.2266C52.0807 43.0443 51.8802 42.8324 51.7344 42.5908C51.5931 42.3493 51.5225 42.0713 51.5225 41.7568C51.5225 41.4515 51.5954 41.1598 51.7412 40.8818C51.887 40.6038 52.0967 40.36 52.3701 40.1504C52.6436 39.9408 52.9762 39.7744 53.3682 39.6514C53.7601 39.5283 54.2021 39.4668 54.6943 39.4668C55.2093 39.4668 55.6719 39.5283 56.082 39.6514C56.4922 39.7699 56.8408 39.9339 57.1279 40.1436C57.4105 40.3577 57.627 40.6107 57.7773 40.9023C57.9277 41.194 58.0029 41.5107 58.0029 41.8525H56.1025C56.1025 41.7295 56.082 41.6156 56.041 41.5107C56 41.4014 55.9385 41.3034 55.8564 41.2168C55.7425 41.1029 55.5876 41.0117 55.3916 40.9434C55.2002 40.875 54.9678 40.8408 54.6943 40.8408C54.4619 40.8408 54.2591 40.8636 54.0859 40.9092C53.9128 40.9548 53.7715 41.0186 53.6621 41.1006C53.5618 41.1735 53.4844 41.2601 53.4297 41.3604C53.3796 41.4561 53.3545 41.5586 53.3545 41.668C53.3545 41.7773 53.3773 41.8799 53.4229 41.9756C53.4684 42.0667 53.5505 42.1488 53.6689 42.2217C53.7829 42.2992 53.9401 42.3698 54.1406 42.4336C54.3411 42.4928 54.5964 42.5452 54.9062 42.5908C55.3529 42.6637 55.7676 42.7572 56.1504 42.8711C56.5332 42.985 56.8636 43.1309 57.1416 43.3086C57.4196 43.4909 57.6361 43.7119 57.791 43.9717C57.9505 44.2269 58.0303 44.5322 58.0303 44.8877C58.0303 45.2158 57.9505 45.5189 57.791 45.7969C57.6361 46.0703 57.415 46.3073 57.1279 46.5078C56.8363 46.7083 56.4854 46.8656 56.0752 46.9795C55.665 47.0889 55.207 47.1436 54.7012 47.1436C54.1452 47.1436 53.653 47.0706 53.2246 46.9248C52.8008 46.779 52.4453 46.5876 52.1582 46.3506C51.8711 46.1182 51.6523 45.8538 51.502 45.5576C51.3561 45.2568 51.2832 44.9561 51.2832 44.6553H53.0947C53.1084 44.8558 53.1631 45.029 53.2588 45.1748C53.3545 45.3161 53.4775 45.43 53.6279 45.5166C53.7783 45.6077 53.9492 45.6738 54.1406 45.7148C54.3366 45.7559 54.5371 45.7764 54.7422 45.7764C54.9883 45.7764 55.2025 45.7559 55.3848 45.7148C55.5716 45.6693 55.7243 45.61 55.8428 45.5371C55.9567 45.4642 56.041 45.3799 56.0957 45.2842C56.1549 45.1885 56.1846 45.0837 56.1846 44.9697ZM63.3076 37.792V39.6035H66.0693V41.0049H63.3076V44.1836C63.3076 44.4525 63.3372 44.6781 63.3965 44.8604C63.4603 45.0381 63.5492 45.1794 63.6631 45.2842C63.777 45.3936 63.9137 45.471 64.0732 45.5166C64.2373 45.5622 64.4196 45.585 64.6201 45.585C64.766 45.585 64.9141 45.5781 65.0645 45.5645C65.2194 45.5508 65.3675 45.5326 65.5088 45.5098C65.6455 45.4915 65.7731 45.471 65.8916 45.4482C66.0146 45.4255 66.1195 45.4027 66.2061 45.3799L66.3906 46.6855C66.2585 46.763 66.1035 46.8314 65.9258 46.8906C65.748 46.9453 65.5589 46.9909 65.3584 47.0273C65.1579 47.0638 64.9482 47.0911 64.7295 47.1094C64.5153 47.1322 64.3034 47.1436 64.0938 47.1436C63.6882 47.1436 63.319 47.0911 62.9863 46.9863C62.6582 46.877 62.3779 46.7083 62.1455 46.4805C61.9085 46.2572 61.7262 45.9723 61.5986 45.626C61.471 45.2751 61.4072 44.8558 61.4072 44.3682V41.0049H59.7188V39.6035H61.4072V37.792H63.3076ZM73.541 39.4668C73.8281 39.4668 74.0924 39.4873 74.334 39.5283C74.5801 39.5648 74.7783 39.6058 74.9287 39.6514L74.6484 41.5449C74.3978 41.4857 74.1403 41.4424 73.876 41.415C73.6162 41.3831 73.3678 41.3672 73.1309 41.3672C72.8848 41.3672 72.6615 41.39 72.4609 41.4355C72.265 41.4766 72.0895 41.5404 71.9346 41.627C71.7477 41.7272 71.5882 41.8548 71.4561 42.0098C71.3239 42.1647 71.2145 42.347 71.1279 42.5566V47H69.2275V39.6035H70.998L71.0732 40.6494L71.0869 40.8135C71.3877 40.3942 71.7477 40.0661 72.167 39.8291C72.5863 39.5876 73.0443 39.4668 73.541 39.4668ZM81.2588 47C81.2132 46.9089 81.1745 46.804 81.1426 46.6855C81.1107 46.5671 81.0833 46.4417 81.0605 46.3096C80.9557 46.4235 80.835 46.5306 80.6982 46.6309C80.5615 46.7311 80.4111 46.8177 80.2471 46.8906C80.0785 46.9681 79.8939 47.0273 79.6934 47.0684C79.4928 47.1139 79.2764 47.1367 79.0439 47.1367C78.6657 47.1367 78.3171 47.082 77.998 46.9727C77.6836 46.8633 77.4124 46.7106 77.1846 46.5146C76.9567 46.3187 76.779 46.0863 76.6514 45.8174C76.5238 45.5439 76.46 45.2477 76.46 44.9287C76.46 44.5186 76.5397 44.1562 76.6992 43.8418C76.8587 43.5228 77.098 43.2607 77.417 43.0557C77.7041 42.8688 78.0573 42.7275 78.4766 42.6318C78.9004 42.5316 79.3857 42.4814 79.9326 42.4814H80.9922V42.0439C80.9922 41.8708 80.9648 41.7158 80.9102 41.5791C80.8555 41.4378 80.7734 41.3171 80.6641 41.2168C80.5501 41.112 80.4066 41.0322 80.2334 40.9775C80.0648 40.9183 79.8665 40.8887 79.6387 40.8887C79.4382 40.8887 79.265 40.9137 79.1191 40.9639C78.9733 41.0094 78.8548 41.0755 78.7637 41.1621C78.6816 41.2396 78.6201 41.333 78.5791 41.4424C78.5426 41.5518 78.5244 41.6725 78.5244 41.8047H76.624C76.624 41.4902 76.6924 41.1917 76.8291 40.9092C76.9704 40.6266 77.1755 40.3783 77.4443 40.1641C77.7087 39.9499 78.0322 39.7812 78.415 39.6582C78.8024 39.5306 79.2445 39.4668 79.7412 39.4668C80.1878 39.4668 80.6025 39.5215 80.9854 39.6309C81.3727 39.7402 81.7077 39.902 81.9902 40.1162C82.2728 40.3304 82.4938 40.6016 82.6533 40.9297C82.8128 41.2533 82.8926 41.6292 82.8926 42.0576V45.2295C82.8926 45.626 82.9176 45.9541 82.9678 46.2139C83.0179 46.4736 83.0908 46.6969 83.1865 46.8838V47H81.2588ZM79.4473 45.667C79.6387 45.667 79.8164 45.6442 79.9805 45.5986C80.1445 45.5531 80.2926 45.4938 80.4248 45.4209C80.557 45.348 80.6709 45.266 80.7666 45.1748C80.8623 45.0791 80.9375 44.9834 80.9922 44.8877V43.6162H80.0215C79.7253 43.6162 79.4723 43.6458 79.2627 43.7051C79.0531 43.7598 78.8822 43.8372 78.75 43.9375C78.6178 44.0423 78.5199 44.1676 78.4561 44.3135C78.3923 44.4548 78.3604 44.6097 78.3604 44.7783C78.3604 44.9105 78.3831 45.0335 78.4287 45.1475C78.4788 45.2568 78.5495 45.3503 78.6406 45.4277C78.7318 45.5007 78.8434 45.5599 78.9756 45.6055C79.1123 45.6465 79.2695 45.667 79.4473 45.667ZM88.5322 37.792V39.6035H91.2939V41.0049H88.5322V44.1836C88.5322 44.4525 88.5618 44.6781 88.6211 44.8604C88.6849 45.0381 88.7738 45.1794 88.8877 45.2842C89.0016 45.3936 89.1383 45.471 89.2979 45.5166C89.4619 45.5622 89.6442 45.585 89.8447 45.585C89.9906 45.585 90.1387 45.5781 90.2891 45.5645C90.444 45.5508 90.5921 45.5326 90.7334 45.5098C90.8701 45.4915 90.9977 45.471 91.1162 45.4482C91.2393 45.4255 91.3441 45.4027 91.4307 45.3799L91.6152 46.6855C91.4831 46.763 91.3281 46.8314 91.1504 46.8906C90.9727 46.9453 90.7835 46.9909 90.583 47.0273C90.3825 47.0638 90.1729 47.0911 89.9541 47.1094C89.7399 47.1322 89.528 47.1436 89.3184 47.1436C88.9128 47.1436 88.5436 47.0911 88.2109 46.9863C87.8828 46.877 87.6025 46.7083 87.3701 46.4805C87.1331 46.2572 86.9508 45.9723 86.8232 45.626C86.6956 45.2751 86.6318 44.8558 86.6318 44.3682V41.0049H84.9434V39.6035H86.6318V37.792H88.5322ZM93.96 39.6035H97.9863V45.4551H99.9893V47H93.96V45.4551H96.0654V41.1553H93.96V39.6035ZM95.9287 37.71C95.9287 37.5641 95.9538 37.4297 96.0039 37.3066C96.0586 37.179 96.1338 37.0697 96.2295 36.9785C96.3252 36.8919 96.4391 36.8236 96.5713 36.7734C96.708 36.7233 96.8584 36.6982 97.0225 36.6982C97.3597 36.6982 97.6263 36.7939 97.8223 36.9854C98.0228 37.1722 98.123 37.4137 98.123 37.71C98.123 38.0062 98.0228 38.25 97.8223 38.4414C97.6263 38.6283 97.3597 38.7217 97.0225 38.7217C96.8584 38.7217 96.708 38.6966 96.5713 38.6465C96.4391 38.5964 96.3252 38.5257 96.2295 38.4346C96.1338 38.348 96.0586 38.2432 96.0039 38.1201C95.9538 37.9925 95.9287 37.8558 95.9287 37.71ZM101.603 43.2334C101.603 42.6956 101.68 42.1989 101.835 41.7432C101.99 41.2829 102.218 40.8841 102.519 40.5469C102.815 40.2096 103.177 39.9453 103.605 39.7539C104.038 39.5625 104.533 39.4668 105.089 39.4668C105.645 39.4668 106.139 39.5625 106.572 39.7539C107.005 39.9453 107.372 40.2096 107.673 40.5469C107.969 40.8841 108.195 41.2829 108.35 41.7432C108.505 42.1989 108.582 42.6956 108.582 43.2334V43.377C108.582 43.9193 108.505 44.4206 108.35 44.8809C108.195 45.3366 107.969 45.7331 107.673 46.0703C107.377 46.4076 107.012 46.6719 106.579 46.8633C106.146 47.0501 105.654 47.1436 105.103 47.1436C104.547 47.1436 104.05 47.0501 103.612 46.8633C103.179 46.6719 102.815 46.4076 102.519 46.0703C102.218 45.7331 101.99 45.3366 101.835 44.8809C101.68 44.4206 101.603 43.9193 101.603 43.377V43.2334ZM103.503 43.377C103.503 43.6868 103.533 43.9785 103.592 44.252C103.651 44.5208 103.744 44.7555 103.872 44.9561C104 45.1611 104.164 45.3229 104.364 45.4414C104.569 45.5599 104.815 45.6191 105.103 45.6191C105.381 45.6191 105.62 45.5599 105.82 45.4414C106.021 45.3229 106.185 45.1611 106.312 44.9561C106.436 44.7555 106.527 44.5208 106.586 44.252C106.645 43.9785 106.675 43.6868 106.675 43.377V43.2334C106.675 42.9326 106.645 42.6478 106.586 42.3789C106.527 42.11 106.436 41.873 106.312 41.668C106.185 41.4629 106.021 41.3011 105.82 41.1826C105.62 41.0641 105.376 41.0049 105.089 41.0049C104.806 41.0049 104.565 41.0641 104.364 41.1826C104.164 41.3011 104 41.4629 103.872 41.668C103.744 41.873 103.651 42.11 103.592 42.3789C103.533 42.6478 103.503 42.9326 103.503 43.2334V43.377ZM110.271 47V39.6035H111.993L112.109 40.6289C112.205 40.4922 112.31 40.3669 112.424 40.2529C112.538 40.139 112.659 40.0365 112.786 39.9453C113.005 39.7904 113.244 39.6719 113.504 39.5898C113.764 39.5078 114.039 39.4668 114.331 39.4668C114.705 39.4668 115.047 39.5215 115.356 39.6309C115.666 39.7402 115.935 39.9134 116.163 40.1504C116.386 40.3919 116.56 40.7018 116.683 41.0801C116.81 41.4538 116.874 41.9095 116.874 42.4473V47H114.974V42.4746C114.974 42.1829 114.939 41.9437 114.871 41.7568C114.807 41.5654 114.714 41.415 114.591 41.3057C114.468 41.1963 114.32 41.1211 114.146 41.0801C113.973 41.0345 113.777 41.0117 113.559 41.0117C113.376 41.0117 113.208 41.0322 113.053 41.0732C112.902 41.1143 112.768 41.1758 112.649 41.2578C112.554 41.3171 112.467 41.3877 112.39 41.4697C112.312 41.5518 112.242 41.6429 112.178 41.7432V47H110.271Z" fill="white"/>
</svg>
